<svg version="1.1" xmlns="http://www.w3.org/2000/svg" xmlns:xlink="http://www.w3.org/1999/xlink" width="94.52553" height="96.00527" viewBox="0,0,94.52553,96.00527"><g transform="translate(-192.73722,-131.99737)"><g data-paper-data="{&quot;isPaintingLayer&quot;:true}" fill-rule="nonzero" stroke-linejoin="miter" stroke-miterlimit="10" stroke-dasharray="" stroke-dashoffset="0" style="mix-blend-mode: normal"><path d="M232.34305,155.71363c-0.90063,8.3776 -7.89779,15.2564 -17.64021,15.2564c-3.51143,0 -10.92633,1.00848 -13.76506,-2.82343c-2.28304,-3.08179 -0.14679,-10.6415 -1.74292,-14.12535c-1.92558,-4.20295 -3.72144,-7.12121 -3.72144,-10.06777c0,-5.17863 5.80856,-2.76954 10.83265,-2.1034c3.15034,0.41771 0.19236,-7.11401 3.94699,-7.11401c9.74242,0 23.6792,6.19484 22.08999,20.97755z" fill="#adf132" stroke="#7aa237" stroke-width="3" stroke-linecap="butt"/><path d="M287.25276,177.91459c0,5.24194 -3.2363,21.41492 -3.2363,21.41492c0,0 -1.10425,20.37382 -7.81288,25.11477c-9.48264,6.70132 -23.16115,1.67622 -23.16115,1.67622c0,0 -8.93967,1.88214 -15.17883,1.88214c-5.56895,0 -18.90402,-6.92536 -18.90402,-6.92536c0,0 -15.88456,-1.27906 -19.9088,-5.86115c-9.07084,-10.32828 -2.75941,-24.57848 -2.75941,-24.57848c0,0 -7.41249,-18.03794 -0.82789,-28.56486c7.38871,-11.81248 28.41173,-4.0101 28.41173,-4.0101c0,0 -3.36875,-25.16535 19.57961,-26.04272c16.48472,-0.63026 16.98087,12.13223 16.98087,12.13223c0,0 10.47309,-2.1338 20.21641,6.17276c7.15571,6.10052 6.60064,18.81202 6.60064,27.58964z" fill="#782fe0" stroke="none" stroke-width="NaN" stroke-linecap="butt"/><path d="M284.71056,178.02678c0,4.95993 -3.06218,20.2628 -3.06218,20.2628c0,0 -1.04484,19.27772 -7.39255,23.7636c-8.97247,6.3408 -21.91508,1.58604 -21.91508,1.58604c0,0 -8.45872,1.78088 -14.36221,1.78088c-5.26934,0 -17.88698,-6.55277 -17.88698,-6.55277c0,0 -15.02998,-1.21025 -18.83771,-5.54582c-8.58283,-9.77262 -2.61095,-23.25616 -2.61095,-23.25616c0,0 -7.0137,-17.06751 -0.78335,-27.02808c6.99121,-11.17697 26.88318,-3.79435 26.88318,-3.79435c0,0 -3.18752,-23.81146 18.52622,-24.64163c15.59785,-0.59635 16.06731,11.47952 16.06731,11.47952c0,0 9.90964,-2.01901 19.12877,5.84066c6.77073,5.77231 6.24552,17.79993 6.24552,26.10532z" fill="#924bfe" stroke="none" stroke-width="NaN" stroke-linecap="butt"/><g fill="#a26cff" stroke="none" stroke-width="0" stroke-linecap="butt"><path d="M252.96937,204.90766c0,6.75825 -7.04398,12.2369 -15.73316,12.2369c-8.68919,0 -15.73316,-5.47865 -15.73316,-12.2369c0,-3.70914 -0.10314,-8.3042 3.24786,-10.54829c2.75471,-1.84477 8.56501,-1.68861 12.48531,-1.68861c8.68919,0 15.73316,5.47865 15.73316,12.23691z"/><path d="M220.54952,192.82968c0,6.40717 -0.17037,12.2369 -5.08547,12.2369c-4.9151,0 -9.2174,-4.8762 -9.2174,-11.28338c0,-6.40717 2.39526,-13.19043 7.31035,-13.19043c8.09351,0 6.99252,5.82973 6.99252,12.2369z"/><path d="M278.71455,200.6168c0,5.61725 -3.7139,15.89209 -10.6477,15.89209c-6.93379,0 -14.14395,-1.37527 -14.14395,-6.99252c0,-3.14221 -1.72002,-10.24352 0.26854,-12.5322c1.56634,-1.80274 6.99034,0.38967 12.2862,1.0899c6.87397,0.90889 12.2369,-3.07452 12.2369,2.54273z"/><path d="M225.82319,163.25719c2.43474,3.30429 -3.49516,4.9258 -6.04907,8.00218c-0.83211,1.00233 -0.95963,5.48666 -2.27932,6.45907c-2.33578,1.7211 -4.39874,0.5669 -6.9683,1.22606c-3.33801,0.85628 -5.50467,5.88498 -7.32863,3.40961c-3.22802,-4.38088 -2.44503,-15.27195 2.92508,-19.22888c5.37011,-3.95693 16.47222,-4.24892 19.70024,0.13196z"/><path d="M252.93372,148.68459c0.74201,2.29346 -4.75144,4.66934 -5.76415,7.14178c-1.19973,2.92903 1.07338,5.54752 -2.86628,6.82212c-2.62258,0.84848 -3.62,-1.55729 -6.33738,-1.96439c-4.81043,-0.72068 -9.03039,1.38842 -9.75254,-1.89838c-1.93887,-8.82457 2.31877,-13.20261 8.63043,-15.55311c7.15585,-2.66488 14.46889,0.44152 16.08992,5.45199z"/><path d="M253.60505,182.02306c0,7.81149 -6.75937,14.14396 -15.09748,14.14396c-8.33811,0 -15.09748,-6.33247 -15.09748,-14.14396c0,-7.81149 6.75937,-14.14396 15.09748,-14.14396c8.33811,0 15.09748,6.33247 15.09748,14.14396z"/><path d="M275.53613,181.70522c0,9.91796 -3.287,15.09748 -9.69418,15.09748c-3.22634,0 -10.46445,-1.63015 -11.15765,-4.79516c-0.68341,-3.12036 3.25688,-4.88092 2.09917,-9.66664c-2.86058,-11.82501 0.74426,-18.59373 7.15143,-18.59373c6.40717,0 11.60123,8.04009 11.60123,17.95805z"/><path d="M277.44318,165.01853c-1.16284,2.3624 -5.46323,-6.17582 -13.34935,-3.8141c-7.27053,2.17736 -13.34935,1.67956 -13.34935,-0.95352c0,-5.8115 5.51657,-10.80662 12.71367,-10.80662c7.19711,0 16.84561,9.76273 13.98503,15.57424z"/></g><path d="M258.53486,170.42069c0,3.21956 -2.01278,5.82952 -4.49567,5.82952c-2.48289,0 -4.49567,-2.60996 -4.49567,-5.82952c0,-3.21956 2.01278,-5.82952 4.49567,-5.82952c2.48289,0 4.49567,2.60997 4.49567,5.82952z" fill="#7118e9" stroke="none" stroke-width="0" stroke-linecap="butt"/><path d="M227.29467,186.98257c3.21956,0 5.82952,2.08393 5.82952,4.65459c0,2.57066 -2.60996,4.65459 -5.82952,4.65459c-3.21956,0 -5.82952,-2.08393 -5.82952,-4.65459c0,-2.57066 2.60997,-4.65459 5.82952,-4.65459z" fill="#7118e9" stroke="none" stroke-width="0" stroke-linecap="butt"/><path d="M252.51102,190.6297c0,2.14637 -2.00097,3.88635 -4.4693,3.88635c-2.46833,0 -4.4693,-1.73998 -4.4693,-3.88635c0,-2.14637 2.00098,-3.88635 4.4693,-3.88635c2.46832,0 4.4693,1.73998 4.4693,3.88635z" fill="#fad1ff" stroke="none" stroke-width="0" stroke-linecap="butt"/><path d="M247.45876,181.88541c0,0 0.29729,2.82036 -2.58955,4.71445c-2.00051,1.31256 -5.57177,1.89234 -5.57177,1.89234" fill="none" stroke="#7525e0" stroke-width="3" stroke-linecap="round"/><path d="M247.65308,185.38312c0,0 9.72577,3.72673 3.38919,8.54815c-6.92381,5.26824 -7.66417,-5.24475 -7.66417,-5.24475" fill="none" stroke="#7525e0" stroke-width="3" stroke-linecap="round"/><path d="M246.87582,188.88084l-1.16591,-1.55454" fill="none" stroke="#7525e0" stroke-width="3" stroke-linecap="round"/></g></g></svg>