<svg version="1.1" xmlns="http://www.w3.org/2000/svg" xmlns:xlink="http://www.w3.org/1999/xlink" width="90.82716" height="103.73885" viewBox="0,0,90.82716,103.73885"><defs><linearGradient x1="236.3717" y1="141.40496" x2="236.3717" y2="221.18896" gradientUnits="userSpaceOnUse" id="color-1"><stop offset="0" stop-color="#fb694b"/><stop offset="1" stop-color="#f66b4d"/></linearGradient></defs><g transform="translate(-194.58642,-127.38057)"><g data-paper-data="{&quot;isPaintingLayer&quot;:true}" fill-rule="nonzero" stroke-linecap="butt" stroke-linejoin="miter" stroke-miterlimit="10" stroke-dasharray="" stroke-dashoffset="0" style="mix-blend-mode: normal"><path d="M285.41358,178.88498c0,25.79697 -29.67782,52.84723 -45.89862,52.22387c-16.88152,-0.64874 -44.47715,-28.37703 -44.9255,-54.1701c-0.32437,-18.66079 25.44438,-40.70474 44.9255,-40.54649c18.49478,0.15024 45.89862,21.56132 45.89862,42.49272z" fill="#d62f2a" stroke="none" stroke-width="0"/><path d="M283.08044,180.41809c0,24.92656 -24.30489,45.35556 -46.24597,45.7692c-16.85951,0.31784 -39.88587,-31.34954 -39.88914,-47.99409c-0.00327,-16.67479 17.62632,-37.82316 42.11403,-37.82316c24.48771,0 44.02108,23.70323 44.02108,40.04806z" fill="#f32c24" stroke="none" stroke-width="0"/><path d="M274.98946,178.11568c0,21.15246 -17.25149,43.48414 -37.34639,43.06755c-15.3316,-0.31784 -39.88913,-18.73667 -39.88913,-39.88913c0,-21.15246 18.20069,-39.88913 38.29992,-39.88913c20.09923,0 38.9356,7.93005 38.9356,36.71071z" fill="url(#color-1)" stroke="none" stroke-width="0"/><g fill="#ffe08f" stroke="none" stroke-width="0"><path d="M215.87091,170.32856c0,2.98416 -1.38979,6.35684 -3.49626,6.35684c-2.10647,0 -3.8141,-2.41915 -3.8141,-5.40331c0,-2.98416 1.70763,-5.4033 3.8141,-5.4033c2.10647,0 3.49626,1.46561 3.49626,4.44978z"/><path d="M240.98041,169.8518c0,2.5499 -5.08546,2.5499 -5.08546,0c0,-2.0187 1.13842,-3.65518 2.54273,-3.65518c1.40431,0 2.54273,1.63648 2.54273,3.65518z"/><path d="M264.50069,167.94475c0,2.54531 -1.10519,3.33734 -2.86058,3.33734c-1.75539,0 -3.49626,-0.79202 -3.49626,-3.33734c0,-2.54531 1.42303,-4.6087 3.17842,-4.6087c1.75539,0 3.17842,2.06339 3.17842,4.6087z"/><path d="M207.54201,188.39486c0.52739,2.75867 -0.65245,5.30229 -2.63523,5.68136c-1.98279,0.37906 -4.0177,-1.54998 -4.54508,-4.30865c-0.52739,-2.75867 0.65244,-5.30229 2.63523,-5.68136c1.98279,-0.37906 4.0177,1.54998 4.54509,4.30865z"/><path d="M224.28359,199.99067c0.60406,1.45981 0.17332,3.02409 -0.96209,3.49391c-1.13541,0.46982 -2.54552,-0.33271 -3.14958,-1.79252c-0.60406,-1.45981 -0.17332,-3.02409 0.96209,-3.49392c1.13541,-0.46982 2.54552,0.33272 3.14959,1.79253z"/><path d="M238.75552,216.89236c0,2.19424 -1.42303,3.97302 -3.17842,3.97302c-1.75539,0 -3.17842,-1.77878 -3.17842,-3.97302c0,-2.19424 2.69439,-4.6087 3.17842,-4.29086c0.67027,0.44015 3.17842,2.09662 3.17842,4.29086z"/><path d="M276.20487,181.01299c-0.45376,2.05702 -1.8638,3.49465 -3.14944,3.21106c-1.28564,-0.28359 -1.96001,-2.18104 -1.50626,-4.23806c0.45376,-2.05702 3.45301,-3.17682 3.46728,-2.89322c0.06616,1.31488 1.64217,1.8632 1.18841,3.92022z"/><path d="M268.62516,196.10341c-0.20137,2.53734 -1.42854,4.50982 -2.74096,4.40566c-1.31241,-0.10416 -2.21309,-2.24552 -2.01172,-4.78286c0.20137,-2.53734 1.42855,-4.50982 2.74096,-4.40566c1.31241,0.10416 2.21309,2.24551 2.01171,4.78285z"/><path d="M258.14386,212.91934c0,1.93093 -0.99612,3.49626 -2.22489,3.49626c-1.22878,0 -2.22489,-1.56533 -2.22489,-3.49626c0,-0.9891 1.53274,-3.15364 1.95287,-3.78963c0.40005,-0.60559 -0.32732,0.29337 0.27202,0.29337c1.22877,0 2.22489,1.56533 2.22489,3.49626z"/></g><path d="M264.78358,148.33358c-0.73809,3.42223 -10.5738,3.41168 -10.5738,3.41168c0,0 -0.59454,3.61272 -5.97555,4.0967c-4.45482,0.40068 -8.65432,-1.84057 -8.65432,-1.84057c0,0 -1.55079,2.41062 -7.79656,1.92476c-4.94095,-0.38436 -6.29257,-4.32552 -6.29257,-4.32552c0,0 -10.14981,1.37227 -10.87336,-4.71415c-0.85038,-7.15336 18.72244,-9.45351 18.72244,-9.45351c0,0 1.43516,-6.18905 2.76467,-7.4967c1.25244,-1.23184 6.55775,-1.55288 8.05787,-0.05323c3.58614,3.58504 4.19548,8.30071 4.19548,8.30071c0,0 18.11399,2.32193 16.42571,10.14983z" fill="#b0ee31" stroke="#779908" stroke-width="3"/><g><path d="M230.21869,186.47372c1.31206,2.76286 -1.00907,5.14941 -3.69203,5.14941c-2.68296,0 -5.63521,-1.70219 -5.63521,-4.76077c0,-3.05858 0.78764,-6.49447 2.91476,-5.73236c2.91908,1.04586 5.05226,2.47946 6.41248,5.34372z" fill="#dc150b" stroke="none" stroke-width="0"/><path d="M256.19379,181.07775c2.12712,-0.76211 2.91476,2.67378 2.91476,5.73236c0,3.05858 -2.95224,4.76077 -5.63521,4.76077c-2.68296,0 -5.0041,-2.38655 -3.69203,-5.14941c1.36022,-2.86426 3.49339,-4.29786 6.41248,-5.34373z" data-paper-data="{&quot;index&quot;:null}" fill="#dc150b" stroke="none" stroke-width="0"/><path d="M245.18113,194.0521c0,1.4634 -2.78527,4.56645 -5.52764,4.56645c-2.74237,0 -4.9655,-3.10305 -4.9655,-4.95509c0,-1.65771 2.78526,-2.04033 5.52764,-2.04033c2.74237,0 4.9655,0.57693 4.9655,2.42897z" fill="#ffffff" stroke="#c9210e" stroke-width="2"/></g></g></g></svg>