<svg version="1.1" xmlns="http://www.w3.org/2000/svg" xmlns:xlink="http://www.w3.org/1999/xlink" width="99.09808" height="94.13848" viewBox="0,0,99.09808,94.13848"><g transform="translate(-190.45096,-132.93076)"><g data-paper-data="{&quot;isPaintingLayer&quot;:true}" fill-rule="nonzero" stroke-linejoin="miter" stroke-miterlimit="10" stroke-dasharray="" stroke-dashoffset="0" style="mix-blend-mode: normal"><path d="M289.54904,180c0,25.99562 -22.18386,47.06924 -49.54904,47.06924c-27.36518,0 -49.54904,-21.07362 -49.54904,-47.06924c0,-25.99562 22.18386,-47.06924 49.54904,-47.06924c27.36518,0 49.54904,21.07362 49.54904,47.06924z" fill="#f17867" stroke="none" stroke-width="0" stroke-linecap="butt"/><path d="M285.98669,180c0,24.35986 -20.58894,44.10743 -45.98669,44.10743c-25.39775,0 -45.98669,-19.74757 -45.98669,-44.10743c0,-24.35986 20.58894,-44.10743 45.98669,-44.10743c25.39775,0 45.98669,19.74757 45.98669,44.10743z" fill="#ffcbc4" stroke="none" stroke-width="0" stroke-linecap="butt"/><path d="M233.94188,142.6674c-2.35451,2.81808 -6.66564,9.93829 -6.66564,9.93829c0,0 0.50946,-3.77604 2.52652,-9.20676c2.01706,-5.43072 5.83792,-7.8288 5.83792,-7.8288l6.81828,0.00592c0,0 -5.8606,3.91184 -8.51709,7.09135c0,0 2.35452,-2.81808 0.00001,0z" fill="#fc8b82" stroke="none" stroke-width="0" stroke-linecap="butt"/><g><path d="M209.08685,173.67277c0,-2.87211 2.3283,-5.2004 5.20041,-5.2004c2.87211,0 5.20041,2.3283 5.20041,5.2004c0,2.87211 -2.3283,5.20041 -5.20041,5.20041c-2.87211,0 -5.20041,-2.32831 -5.20041,-5.20041z" fill="#c3070b" stroke="none" stroke-width="0" stroke-linecap="butt"/><path d="M250.03352,173.74607c0,-2.87211 2.3283,-5.20041 5.20041,-5.20041c2.8721,0 5.2004,2.3283 5.2004,5.20041c0,2.87211 -2.3283,5.20041 -5.2004,5.20041c-2.87211,0 -5.20041,-2.32831 -5.20041,-5.20041z" fill="#c3070b" stroke="none" stroke-width="0" stroke-linecap="butt"/><path d="M239.61599,180.14065c0,2.51027 -1.7058,4.54524 -3.80999,4.54524c-2.1042,0 -3.80998,-2.03498 -3.80998,-4.54524c0,-2.51027 1.70579,-4.54524 3.80998,-4.54524c2.1042,0 3.80999,2.03498 3.80999,4.54524z" fill="#fdfdf9" stroke="#b51816" stroke-width="0" stroke-linecap="butt"/><path d="M229.55699,173.20824c0,0 -0.52477,2.71945 0.82609,3.24231c1.30067,0.50343 4.45846,-1.18958 5.47605,-1.16019c0.91174,0.02634 4.38398,1.65186 5.57392,1.3091c1.71089,-0.49283 1.04588,-3.01792 1.04588,-3.01792" fill="none" stroke="#b51816" stroke-width="2" stroke-linecap="round"/><path d="M232.70099,176.28303c0,0 -0.86212,8.96919 2.76891,9.11237c4.28742,0.16906 3.62401,-8.82612 3.62401,-8.82612" fill="none" stroke="#b51816" stroke-width="2" stroke-linecap="round"/></g></g></g></svg>