<svg version="1.1" xmlns="http://www.w3.org/2000/svg" xmlns:xlink="http://www.w3.org/1999/xlink" width="102.02372" height="103.98909" viewBox="0,0,102.02372,103.98909"><defs><linearGradient x1="193.3851" y1="181.85151" x2="278.67418" y2="181.85151" gradientUnits="userSpaceOnUse" id="color-1"><stop offset="0" stop-color="#f00f0b"/><stop offset="1" stop-color="#f10e0d"/></linearGradient></defs><g transform="translate(-188.98814,-128.00546)"><g data-paper-data="{&quot;isPaintingLayer&quot;:true}" fill-rule="nonzero" stroke-linejoin="miter" stroke-miterlimit="10" stroke-dasharray="" stroke-dashoffset="0" style="mix-blend-mode: normal"><path d="M291.01186,182.8285c0,27.15365 -22.83879,49.16604 -51.01186,49.16604c-28.17307,0 -51.01186,-22.01238 -51.01186,-49.16604c0,-27.15365 24.13023,-46.81681 52.3033,-46.81681c28.17307,0 49.72042,19.66315 49.72042,46.81681z" fill="#bb0e0d" stroke="none" stroke-width="NaN" stroke-linecap="butt"/><path d="M192.51198,184.00312c0,-25.39284 21.26111,-45.9778 47.48802,-45.9778c26.22691,0 47.48802,20.58496 47.48802,45.9778c0,25.39284 -21.26111,45.9778 -47.48802,45.9778c-26.22691,0 -47.48802,-20.58496 -47.48802,-45.9778z" fill="#dc0400" stroke="none" stroke-width="0" stroke-linecap="butt"/><path d="M193.3851,182.36955c0,-22.8849 18.89637,-42.15832 41.77923,-42.46414c25.62452,-0.34245 44.1764,9.30565 43.49149,43.49149c-0.4584,22.88031 -20.94905,40.40942 -43.83395,40.40942c-22.8849,0 -41.43678,-18.55188 -41.43678,-41.43678z" fill="url(#color-1)" stroke="none" stroke-width="0" stroke-linecap="butt"/><g><path d="M212.67367,177.16032c0,-2.9945 2.42752,-5.42201 5.42201,-5.42201c2.9945,0 5.42201,2.42752 5.42201,5.42201c0,2.9945 -2.42752,5.42201 -5.42201,5.42201c-2.9945,0 -5.42201,-2.42752 -5.42201,-5.42201z" fill="#9d0001" stroke="none" stroke-width="0" stroke-linecap="butt"/><path d="M255.82859,177.34075c0,-2.9945 2.42752,-5.42201 5.42201,-5.42201c2.9945,0 5.42201,2.42752 5.42201,5.42201c0,2.9945 -2.42751,5.42202 -5.42201,5.42202c-2.9945,0 -5.42201,-2.42752 -5.42201,-5.42202z" fill="#9d0001" stroke="none" stroke-width="0" stroke-linecap="butt"/><path d="M244.00086,189.35277c0,-1.75191 -3.16665,-6.168 -4.3176,-6.168c-1.15094,0 -4.38235,5.65375 -4.3176,6.168c0.17623,1.39945 8.63519,0.51831 8.63519,0z" fill="#ffffff" stroke="#9d0001" stroke-width="3" stroke-linecap="butt"/><path d="M235.96825,142.01763c0,0 3.04578,1.09561 4.41193,1.15137c1.7952,0.07327 5.42803,-0.74974 5.42803,-0.74974" fill="none" stroke="#ba1903" stroke-width="3" stroke-linecap="round"/><path d="M255.04571,132.78012c0.20082,2.43146 -7.03986,2.04844 -8.00704,2.7808c-2.26425,1.71453 -5.04596,6.25589 -5.04596,6.25589l-2.22336,-0.78481c0,0 -0.87476,-3.95031 -0.38724,-5.64129c1.60652,-5.57227 4.65437,-6.71953 7.43017,-7.22935c2.55205,-0.46873 7.84089,-0.13408 8.23343,4.61875z" fill="#966513" stroke="none" stroke-width="0" stroke-linecap="butt"/><path d="M226.21086,151.61762c0.74592,2.4973 -2.02055,5.75623 -6.50243,7.38601c-4.48189,1.62978 -8.91035,2.59561 -10.12954,-1.28325c-1.02921,-3.27443 2.42218,-5.95705 6.90406,-7.58682c4.48189,-1.62978 8.63641,-2.17023 9.72791,1.48406z" fill="#feb5ae" stroke="none" stroke-width="0" stroke-linecap="butt"/><path d="M234.36173,151.65677c0,-1.88542 1.52844,-3.41386 3.41386,-3.41386c1.88542,0 3.41386,1.52844 3.41386,3.41386c0,1.88542 -1.52844,3.41386 -3.41386,3.41386c-1.88542,0 -3.41386,-1.52844 -3.41386,-3.41386z" fill="#feb5ae" stroke="none" stroke-width="0" stroke-linecap="butt"/></g></g></g></svg>