<svg version="1.1" xmlns="http://www.w3.org/2000/svg" xmlns:xlink="http://www.w3.org/1999/xlink" width="44.72009" height="50.9061" viewBox="0,0,44.72009,50.9061"><defs><linearGradient x1="403.21354" y1="-19.00284" x2="403.21354" y2="20.28" gradientUnits="userSpaceOnUse" id="color-1"><stop offset="0" stop-color="#fb694b"/><stop offset="1" stop-color="#f66b4d"/></linearGradient></defs><g transform="translate(-382.63996,25.73668)"><g data-paper-data="{&quot;isPaintingLayer&quot;:true}" fill-rule="nonzero" stroke-linecap="butt" stroke-linejoin="miter" stroke-miterlimit="10" stroke-dasharray="" stroke-dashoffset="0" style="mix-blend-mode: normal"><path d="M427.36005,-0.54899c0,12.70152 -14.61232,26.02012 -22.59887,25.7132c-8.31186,-0.31942 -21.89899,-13.97185 -22.11973,-26.67145c-0.15971,-9.18792 12.52792,-20.04158 22.11973,-19.96366c9.10618,0.07397 22.59887,10.61604 22.59887,20.92192z" fill="#d62f2a" stroke="none" stroke-width="0"/><path d="M426.21129,0.20585c0,12.27296 -11.96688,22.33148 -22.76989,22.53515c-8.30103,0.15649 -19.6384,-15.43541 -19.64001,-23.6306c-0.00161,-8.21008 8.67858,-18.6228 20.73547,-18.6228c12.05689,0 21.67443,11.67064 21.67443,19.71825z" fill="#f32c24" stroke="none" stroke-width="0"/><path d="M422.22758,-0.92778c0,10.41473 -8.49402,21.41006 -18.38805,21.20495c-7.54874,-0.15649 -19.64001,-9.22528 -19.64001,-19.64001c0,-10.41473 8.96138,-19.64001 18.85753,-19.64001c9.89615,0 19.17052,3.90448 19.17052,18.07507z" fill="url(#color-1)" stroke="none" stroke-width="0"/><g fill="#ffe08f" stroke="none" stroke-width="0"><path d="M393.11968,-4.76188c0,1.4693 -0.68428,3.12989 -1.72143,3.12989c-1.03715,0 -1.87792,-1.19111 -1.87792,-2.6604c0,-1.4693 0.84078,-2.66039 1.87792,-2.66039c1.03715,0 1.72143,0.72162 1.72143,2.19091z"/><path d="M405.48271,-4.99661c0,1.25548 -2.5039,1.25548 -2.5039,0c0,-0.99394 0.56052,-1.79968 1.25195,-1.79968c0.69144,0 1.25195,0.80575 1.25195,1.79968z"/><path d="M417.06327,-5.93558c0,1.25322 -0.54416,1.64319 -1.40845,1.64319c-0.86429,0 -1.72143,-0.38997 -1.72143,-1.64319c0,-1.25322 0.70065,-2.26916 1.56494,-2.26916c0.86429,0 1.56494,1.01594 1.56494,2.26916z"/><path d="M389.01882,4.13334c0.25967,1.35827 -0.32125,2.61067 -1.2975,2.7973c-0.97626,0.18664 -1.97817,-0.76316 -2.23784,-2.12143c-0.25967,-1.35827 0.32124,-2.61067 1.2975,-2.7973c0.97626,-0.18664 1.97817,0.76316 2.23784,2.12143z"/><path d="M397.26179,9.84271c0.29741,0.71876 0.08534,1.48896 -0.4737,1.72028c-0.55904,0.23133 -1.25333,-0.16382 -1.55074,-0.88258c-0.29741,-0.71876 -0.08534,-1.48896 0.4737,-1.72029c0.55904,-0.23133 1.25333,0.16382 1.55075,0.88258z"/><path d="M404.38725,18.1645c0,1.08037 -0.70065,1.95618 -1.56494,1.95618c-0.86429,0 -1.56494,-0.8758 -1.56494,-1.95618c0,-1.08037 1.32662,-2.26916 1.56494,-2.11267c0.33001,0.21672 1.56494,1.0323 1.56494,2.11267z"/><path d="M422.826,0.49876c-0.22341,1.0128 -0.91767,1.72064 -1.55067,1.58101c-0.633,-0.13963 -0.96504,-1.07387 -0.74163,-2.08667c0.22341,-1.0128 1.70014,-1.56415 1.70716,-1.42452c0.03257,0.6474 0.80854,0.91738 0.58513,1.93018z"/><path d="M419.09402,7.92876c-0.09914,1.2493 -0.70336,2.22048 -1.34955,2.16919c-0.64619,-0.05129 -1.08965,-1.10561 -0.9905,-2.35491c0.09914,-1.2493 0.70337,-2.22048 1.34955,-2.16919c0.64619,0.05129 1.08965,1.10561 0.9905,2.35491z"/><path d="M413.93339,16.20832c0,0.95072 -0.49046,1.72143 -1.09546,1.72143c-0.60501,0 -1.09546,-0.77072 -1.09546,-1.72143c0,-0.487 0.75467,-1.55274 0.96152,-1.86588c0.19697,-0.29817 -0.16116,0.14444 0.13393,0.14444c0.605,0 1.09546,0.77072 1.09546,1.72143z"/></g><path d="M417.20256,-15.59143c-0.36341,1.68499 -5.20617,1.67979 -5.20617,1.67979c0,0 -0.29273,1.77877 -2.94215,2.01707c-2.1934,0.19728 -4.26109,-0.90623 -4.26109,-0.90623c0,0 -0.76355,1.1869 -3.83875,0.94768c-2.43275,-0.18924 -3.09824,-2.12974 -3.09824,-2.12974c0,0 -4.99741,0.67566 -5.35366,-2.32109c-0.4187,-3.52206 9.21827,-4.65458 9.21827,-4.65458c0,0 0.70662,-3.04727 1.36123,-3.69111c0.61666,-0.60651 3.22881,-0.76458 3.96742,-0.02621c1.76569,1.76515 2.06571,4.08698 2.06571,4.08698c0,0 8.91869,1.14323 8.08744,4.99742z" fill="#b0ee31" stroke="#779908" stroke-width="3"/><g><path d="M400.18402,3.18743c0.64601,1.36033 -0.49683,2.53539 -1.81783,2.53539c-1.32099,0 -2.77458,-0.8381 -2.77458,-2.34404c0,-1.50594 0.38781,-3.19765 1.43513,-2.82241c1.43725,0.51494 2.48756,1.2208 3.15728,2.63106z" fill="#dc150b" stroke="none" stroke-width="0"/><path d="M412.97324,0.53065c1.04732,-0.37524 1.43513,1.31647 1.43513,2.82241c0,1.50594 -1.45358,2.34404 -2.77458,2.34404c-1.32099,0 -2.46384,-1.17506 -1.81783,-2.53539c0.66973,-1.41026 1.72002,-2.11611 3.15728,-2.63106z" data-paper-data="{&quot;index&quot;:null}" fill="#dc150b" stroke="none" stroke-width="0"/><path d="M407.551,6.91876c0,0.72053 -1.37137,2.24836 -2.72161,2.24836c-1.35024,0 -2.44484,-1.52783 -2.44484,-2.43971c0,-0.8162 1.37137,-1.00459 2.72161,-1.00459c1.35024,0 2.44484,0.28406 2.44484,1.19594z" fill="#ffffff" stroke="#c9210e" stroke-width="2"/></g></g></g></svg>