<svg version="1.1" xmlns="http://www.w3.org/2000/svg" xmlns:xlink="http://www.w3.org/1999/xlink" width="98" height="105.29784" viewBox="0,0,98,105.29784"><defs><radialGradient cx="227.25" cy="181.80517" r="44.55148" gradientUnits="userSpaceOnUse" id="color-1"><stop offset="0" stop-color="#a5e210"/><stop offset="1" stop-color="#7ac717"/></radialGradient></defs><g transform="translate(-191,-127.35108)"><g data-paper-data="{&quot;isPaintingLayer&quot;:true}" fill-rule="nonzero" stroke-linejoin="miter" stroke-miterlimit="10" stroke-dasharray="" stroke-dashoffset="0" style="mix-blend-mode: normal"><g stroke="none" stroke-width="0" stroke-linecap="butt"><g><path d="M191,183.64892c0,-27.06196 21.93804,-49 49,-49c27.06196,0 49,21.93804 49,49c0,27.06196 -21.93804,49 -49,49c-27.06196,0 -49,-21.93804 -49,-49z" fill="#4a9e0c"/><path d="M193.75,183.64892c0,-25.54317 20.70683,-46.25 46.25,-46.25c25.54317,0 46.25,20.70683 46.25,46.25c0,25.54317 -20.70683,46.25 -46.25,46.25c-25.54317,0 -46.25,-20.70683 -46.25,-46.25z" fill="#bbed7d"/></g><path d="M277.75,178.08207c0,24.31538 -21.08754,48.5269 -45.25,48.5269c-24.16246,0 -39.25,-19.71151 -39.25,-44.0269c0,-24.31538 22.11873,-46.25418 46.25,-45.0269c19.66246,1 38.25,11.71151 38.25,40.5269z" fill="url(#color-1)"/><path d="M271.83333,217.80517c-4.67073,3.33334 -4.58333,-0.13646 -4.58333,-4.41666c0,-4.2802 4.96701,-8.0745 8.91667,-7.41667c6.00407,1 -1.07413,9.50736 -4.33333,11.83334z" fill="#faf5a7"/><path d="M276.91667,211.10726c-0.65512,2.68258 -2.61564,4.38082 -5.5,5.33333c-4.03756,1.33334 -3.16667,-0.23857 -3.16667,-3c0,-2.76143 0.46244,-6.33333 3.5,-6.33333c3.03756,0 6.16667,-0.09475 5.16667,4z" fill="#fdfef5"/></g><path d="M275.48645,141.11204c0.2416,4.10535 -4.93162,6.12099 -4.93162,6.12099c0,0 2.17068,6.40117 -1.31824,6.60649c-7.86797,0.46302 -8.78438,-5.03663 -7.24556,-9.25288c1.17127,-3.2092 5.35427,-0.88929 5.35427,-0.88929c0,0 5.56351,-7.29621 5.3965,-8.51077c-0.27776,-2.02 -3.66896,1.22404 -3.50296,-0.40348c0.6012,-5.89439 12.08189,-8.40332 13.28421,-7.09236c1.09714,1.19628 -4.72113,3.72059 -6.25276,6.82808c-1.19347,2.42139 -0.90148,4.5941 -0.78384,6.59322z" fill="#26820e" stroke="none" stroke-width="0" stroke-linecap="butt"/><g fill="none" stroke="#ebf352" stroke-width="2" stroke-linecap="round"><path d="M194.04167,192.10205c0,0 4.72746,-3.32604 6.25077,-6.74966c0.47947,-1.0776 -2.51176,-1.48916 -2.00272,-2.68079c1.67726,-3.9264 2.79069,-8.08483 6.77361,-11.29266c1.94461,-1.56618 6.83819,-0.22365 9.1763,-1.33143c1.06651,-0.50531 14.29697,9.98451 15.87395,8.9101c1.13861,-0.77575 0.98795,-3.82747 2.03455,-4.6544c1.52402,-1.20416 -2.23603,-4.42144 -1.30503,-6.64079c0.93892,-2.23822 1.61231,-2.42144 3.24499,-4.0228c1.15206,-1.12997 -4.358,-5.35057 -4.358,-5.35057c0,0 0.2172,-6.3231 2.60729,-8.41985c2.6649,-2.33782 6.4418,-0.71112 8.72166,-2.49493c1.38385,-1.08275 4.66313,4.66379 5.81119,3.76002c1.52585,-1.20116 0.59296,-3.71088 1.64352,-4.47814c5.0883,-3.71618 12.27791,-3.30409 12.27791,-3.30409"/><path d="M196.29167,189.35205l-2.25,-2.5"/><path d="M194.79167,174.85205l5,3"/><path d="M197.54167,166.35205c0,0 2.51833,0.04883 3.37082,1.15706c0.81223,1.05591 1.62918,5.34294 1.62918,5.34294"/><path d="M213.29167,169.35205c0,0 -4.65257,-4.07716 -4.75027,-7.00833c-0.13806,-4.14185 4.00027,-15.49167 4.00027,-15.49167"/><path d="M201.04167,167.35205c0,0 1.20358,-3.94372 2.36564,-4.70507c1.24841,-0.81792 4.88436,-0.04493 4.88436,-0.04493"/><path d="M203.54167,162.10205l-1,-4"/><path d="M205.29167,155.35205c0,0 8.88788,1.58182 10.73077,4.34616c0.61495,0.92242 2.4735,2.65386 2.15901,4.98997c-0.34235,2.54305 -2.13978,5.66387 -2.13978,5.66387"/><path d="M230.29167,168.85205c0,0 -5.89789,2.41838 -7.72745,2.25205c-1.83708,-0.167 -3.27255,-3.25205 -3.27255,-3.25205"/><path d="M218.04167,165.60205c0,0 3.61469,-3.67728 5.71179,-3.5128c2.1515,0.16875 7.03821,4.5128 7.03821,4.5128"/><path d="M225.79167,162.10205l4,-4.75"/><path d="M227.54167,159.35205c0,0 -4.19998,-1.99147 -6.18761,-5.90471c-1.10358,-2.17272 -0.14169,-6.66718 -0.70146,-7.61567c-0.73211,-1.24052 -2.11093,-1.72962 -2.11093,-1.72962"/><path d="M221.04167,153.60205l-5,5.25"/><path d="M226.79167,146.85205l-5.75,3.25"/><path d="M224.79167,140.60205c0,0 2.3632,1.85785 3.17871,3.41795c0.24149,0.462 -0.24116,2.3659 0.02715,3.09823c0.89172,2.43383 2.54414,4.48382 2.54414,4.48382"/><path d="M227.04167,142.10205c0,0 6.2322,-1.40376 9.27693,-1.23461c2.95244,0.16403 8.72307,2.23461 8.72307,2.23461"/><path d="M235.04167,147.85205c0,0 -1.26944,-1.23944 -1.43773,-2.01354c-0.22924,-1.0545 0.18773,-3.73646 0.18773,-3.73646"/><path d="M239.79167,147.35205l0.25,-5"/><path d="M248.04167,147.35205l-4,-9.25"/></g><g fill="none" stroke="#cced5d" stroke-width="2" stroke-linecap="round"><path d="M200.01667,205.26142c0,0 1.18608,-1.08588 2.08877,-0.94656c2.4677,0.38084 3.37916,6.5775 6.22003,7.93713c2.10264,1.00632 3.66583,-0.68727 6.06465,0.87825c3.68788,2.4068 6.04842,3.44141 11.04173,5.29021c3.30743,1.22459 6.22977,0.37974 9.621,0.53049c1.38147,0.06141 0.17312,-2.9635 1.63827,-2.00307c0.92828,0.6085 5.37533,-0.40707 6.58702,0.85452c2.12358,2.21103 0.53854,7.45903 0.53854,7.45903"/><path d="M211.61667,213.46142c0,0 2.64174,3.82483 3.58219,5.59721c0.74887,1.41135 1.61781,4.2028 1.61781,4.2028"/><path d="M228.21667,219.66142l-0.4,7.2"/><path d="M232.61667,219.26142c0,0 1.82227,1.85344 2.32663,3.0639c0.49549,1.18916 0.67337,4.1361 0.67337,4.1361"/><path d="M220.81667,217.46142l-3.8,5.2"/></g><g fill="none" stroke="#ddf364" stroke-width="2" stroke-linecap="round"><path d="M271.875,200.81038c0,0 -3.64709,-2.42973 -5.3546,-8.29235c-0.68109,-2.33847 -0.16157,-7.15493 -0.87248,-9.75917c-0.78441,-2.87351 -0.54499,-4.86727 -1.1891,-7.77248c-0.63092,-2.84576 0.73999,-4.89779 0.14828,-7.4792c-0.35818,-1.56264 -1.93615,-2.05765 -2.22222,-3.44882c-0.72482,-3.52484 -0.7148,-6.38312 -0.79775,-7.98598c-0.15252,-2.947 -5.44646,-6.02462 -7.24578,-8.73968c-1.72609,-2.60455 -1.46635,-6.52231 -1.46635,-6.52231"/><path d="M266.125,187.31038c0,0 5.53821,3.63067 6.74667,5.421c1.00303,1.48597 0.00333,4.579 0.00333,4.579"/><path d="M266.125,183.56038c0,0 4.23018,0.31437 5.98712,-0.46649c1.96888,-0.87506 5.26288,-4.53351 5.26288,-4.53351"/><path d="M264.625,169.06038c0,0 4.28208,1.19045 5.90506,2.49675c1.77929,1.43212 6.59494,7.50325 6.59494,7.50325"/><path d="M275.125,164.31038c0,0 -4.57305,1.51687 -6.54561,2.27899c-1.62723,0.6287 -4.45439,1.97101 -4.45439,1.97101"/><path d="M261.625,158.56038c0,0 5.20309,-2.83483 7.15094,-2.2783c2.55306,0.72944 6.84906,6.2783 6.84906,6.2783"/><path d="M260.875,153.31038l1.75,-3.75"/><path d="M259.625,143.06038c0,0 0.72704,3.44641 1.28017,4.73707c0.38231,0.89206 1.71983,2.26293 1.71983,2.26293"/><path d="M269.125,156.81038l-0.75,9"/><path d="M269.875,172.06038c0,0 -0.92019,2.39727 -1.37115,3.41747c-0.32291,0.7305 -1.08118,2.13036 -1.08118,2.13036c0,0 1.50065,3.1059 2.35433,4.44611c1.01801,1.5982 3.348,4.50606 3.348,4.50606"/></g><path d="M254.5,178.22184c0,-3.03757 2.46244,-5.5 5.5,-5.5c3.03756,0 5.5,2.46243 5.5,5.5c0,3.03757 -2.46244,5.5 -5.5,5.5c-3.03756,0 -5.5,-2.46243 -5.5,-5.5z" fill="#117b06" stroke="none" stroke-width="0" stroke-linecap="butt"/><path d="M214.16667,177.8885c0,-3.03757 2.46243,-5.5 5.5,-5.5c3.03757,0 5.5,2.46243 5.5,5.5c0,3.03757 -2.46243,5.5 -5.5,5.5c-3.03757,0 -5.5,-2.46243 -5.5,-5.5z" fill="#117b06" stroke="none" stroke-width="0" stroke-linecap="butt"/><path d="M232.63095,188.73938c0,0 2.48945,0.02785 4.27162,-1.08499c1.66013,-1.03664 2.31904,-2.45355 2.16036,-2.42939c-0.14554,0.02216 1.13143,1.72122 2.77014,2.8984c1.25816,0.9038 3.75026,0.90332 3.75026,0.90332" fill="none" stroke="#107b05" stroke-width="2.5" stroke-linecap="round"/></g></g></svg>