<svg version="1.1" xmlns="http://www.w3.org/2000/svg" xmlns:xlink="http://www.w3.org/1999/xlink" width="99" height="113.59425" viewBox="0,0,99,113.59425"><defs><radialGradient cx="228.42187" cy="181.2499" r="39.79075" gradientUnits="userSpaceOnUse" id="color-1"><stop offset="0" stop-color="#faf79a"/><stop offset="1" stop-color="#faf79a" stop-opacity="0"/></radialGradient><linearGradient x1="227.01101" y1="145.29088" x2="227.01101" y2="200.2634" gradientUnits="userSpaceOnUse" id="color-2"><stop offset="0" stop-color="#faf79a"/><stop offset="1" stop-color="#faf79a" stop-opacity="0"/></linearGradient><linearGradient x1="225.63798" y1="144.54022" x2="228.43075" y2="155.31895" gradientUnits="userSpaceOnUse" id="color-3"><stop offset="0" stop-color="#fffbd2"/><stop offset="1" stop-color="#fef7ab"/></linearGradient><linearGradient x1="211.24057" y1="157.63995" x2="211.24057" y2="164.05082" gradientUnits="userSpaceOnUse" id="color-4"><stop offset="0" stop-color="#fffbd2"/><stop offset="1" stop-color="#fef7ab"/></linearGradient></defs><g transform="translate(-190.5,-122.70287)"><g data-paper-data="{&quot;isPaintingLayer&quot;:true}" fill-rule="nonzero" stroke-linejoin="miter" stroke-miterlimit="10" stroke-dasharray="" stroke-dashoffset="0" style="mix-blend-mode: normal"><g><path d="M223.79167,140.16692c0,0 -1.50042,-0.78942 -3.03085,-1.09595c-1.66974,-0.33444 -3.39507,-0.23964 -3.20677,-1.5029c0.46941,-3.14923 6.14743,-6.05438 11.27663,-5.54023c2.59902,0.26053 -6.55763,-5.42113 -3.01178,-7.37678c4.99466,-2.75471 14.52044,4.23918 14.52044,4.23918c0,0 10.62427,-7.99106 15.2161,-4.13676c2.70028,2.26656 -5.00789,7.78952 -5.20699,7.6551c-0.34809,-0.235 14.97963,-0.22051 14.08593,5.0946c-0.23364,1.38954 -3.32996,1.4041 -5.50885,1.95104c-1.2079,0.3032 -2.13386,1.4627 -2.13386,1.4627" fill="#b3ee34" stroke="#458b07" stroke-width="2" stroke-linecap="round"/><path d="M190.5,186.79713c0,-27.3381 22.1619,-49.5 49.5,-49.5c27.3381,0 49.5,22.1619 49.5,49.5c0,27.3381 -22.1619,49.5 -49.5,49.5c-27.3381,0 -49.5,-22.1619 -49.5,-49.5z" fill="#f1b613" stroke="none" stroke-width="NaN" stroke-linecap="butt"/><path d="M193.5,186.79713c0,-25.68124 20.81876,-46.5 46.5,-46.5c25.68124,0 46.5,20.81876 46.5,46.5c0,25.68124 -20.81876,46.5 -46.5,46.5c-25.68124,0 -46.5,-20.81876 -46.5,-46.5z" fill="#faf012" stroke="none" stroke-width="0" stroke-linecap="butt"/><path d="M278.37047,195.1849c-5.73742,24.0054 -28.91072,39.03871 -51.75899,33.57784c-22.84827,-5.46086 -36.71937,-29.34799 -30.98194,-53.35339c5.73743,-24.0054 28.91071,-39.03871 51.75899,-33.57784c22.84828,5.46087 36.71937,29.34799 30.98194,53.3534z" fill="#f7e709" stroke="none" stroke-width="0" stroke-linecap="butt"/></g><g fill="none" stroke="#f6d20a" stroke-width="3" stroke-linecap="round"><path d="M278.01344,194.7636c0,0 -6.54834,13.58167 -20.72224,23.06754c-11.07425,7.41143 -32.92658,12.02351 -32.92658,12.02351"/><path d="M198.38375,210.62205c0,0 28.74384,-5.30138 42.1906,-13.63115c21.22119,-13.14574 33.05271,-35.29387 33.05271,-35.29387"/><path d="M195.68444,199.14998c0,0 7.93142,11.19733 20.41519,18.62097c11.00227,6.54265 32.5588,9.7218 32.5588,9.7218"/><path d="M271.93999,209.94722c0,0 -17.04292,-3.4849 -23.50061,-5.92835c-5.99168,-2.26712 -13.95234,-8.24303 -13.95234,-8.24303"/><path d="M279.3631,177.8929c0,0 -25.85604,-7.36193 -32.07348,-16.21004c-4.12242,-5.86667 -0.65567,-19.89325 -0.65567,-19.89325"/></g><path d="M262.49168,188.1947c-4.3893,21.53302 -23.2011,35.87969 -42.01734,32.04418c-18.81624,-3.83551 -30.51158,-24.40076 -26.12228,-45.93378c4.3893,-21.53302 23.2011,-35.87969 42.01734,-32.04418c18.81624,3.83551 30.51158,24.40076 26.12228,45.93378z" fill="url(#color-1)" stroke="none" stroke-width="0" stroke-linecap="butt"/><path d="M256.82786,169.83585c-3.75444,14.94248 -20.52017,32.65863 -36.61487,29.99705c-16.0947,-2.66159 -26.09846,-16.9325 -22.34401,-31.87498c3.75444,-14.94248 19.35913,-26.07211 35.94004,-24.59842c25.551,2.27093 26.77328,11.53388 23.01884,26.47636z" fill="url(#color-2)" stroke="none" stroke-width="0" stroke-linecap="butt"/><g><path d="M252.20955,181.7404c0,0 0.61171,-3.50453 2.73099,-5.52505c3.07005,-2.92698 6.85255,-2.03401 6.85255,-2.03401" fill="none" stroke="#c88205" stroke-width="3" stroke-linecap="round"/><path d="M216.97634,173.97547c0,0 3.20979,-0.61596 5.74201,1.00971c2.98019,1.91326 3.12231,5.83999 3.12231,5.83999" fill="none" stroke="#c88205" stroke-width="3" stroke-linecap="round"/><path d="M246.35036,191.09517c0,3.22995 -3.12711,5.84834 -6.98459,5.84834c-3.85748,0 -6.98459,-2.61839 -6.98459,-5.84834c0,-3.22995 3.12711,-5.84834 6.98459,-5.84834c3.85748,0 6.98459,2.61839 6.98459,5.84834z" fill="#ffffff" stroke="#000000" stroke-width="0" stroke-linecap="butt"/><path d="M229.8699,186.06318c0,0 2.89899,0.48137 4.50402,0.10481c1.68158,-0.39452 5.22467,-1.97359 4.9636,-2.01763c-0.20763,-0.03503 2.83248,1.86875 4.32541,2.29265c1.46154,0.41498 4.94293,-0.17837 4.94293,-0.17837" fill="none" stroke="#c88205" stroke-width="3" stroke-linecap="round"/><path d="M232.42923,187.16413c0,0 -0.24378,6.9953 0.82907,7.99957c2.60033,2.43412 9.53673,2.22524 12.40541,0.0868c1.31348,-0.97913 0.73652,-8.14532 0.73652,-8.14532" fill="none" stroke="#c88205" stroke-width="3" stroke-linecap="round"/></g><path d="M234.95213,147.52953c0.7712,2.97646 -2.3401,3.9176 -6.21853,4.9225c-3.87842,1.0049 -6.95876,3.4108 -9.60511,1.26874c-2.38993,-1.93451 2.63106,-8.17566 6.50948,-9.18056c3.87842,-1.0049 8.54295,0.01285 9.31415,2.98931z" fill="url(#color-3)" stroke="none" stroke-width="0" stroke-linecap="butt"/><path d="M208.03514,160.84538c0,-1.77031 1.43512,-3.20543 3.20543,-3.20543c1.77031,0 3.20543,1.43512 3.20543,3.20543c0,1.77031 -1.43512,3.20543 -3.20543,3.20543c-1.77031,0 -3.20543,-1.43512 -3.20543,-3.20543z" fill="url(#color-4)" stroke="none" stroke-width="0" stroke-linecap="butt"/></g></g></svg>