<svg version="1.1" xmlns="http://www.w3.org/2000/svg" xmlns:xlink="http://www.w3.org/1999/xlink" width="96.5993" height="96.59931" viewBox="0,0,96.5993,96.59931"><defs><linearGradient x1="196.42898" y1="180" x2="283.57102" y2="180" gradientUnits="userSpaceOnUse" id="color-1"><stop offset="0" stop-color="#57c10c"/><stop offset="1" stop-color="#16b00b"/></linearGradient><linearGradient x1="196.85912" y1="180.47017" x2="274.7734" y2="180.47017" gradientUnits="userSpaceOnUse" id="color-2"><stop offset="0" stop-color="#5cc50a"/><stop offset="1" stop-color="#14990c"/></linearGradient><linearGradient x1="200.13569" y1="191.05726" x2="281.97925" y2="191.05726" gradientUnits="userSpaceOnUse" id="color-3"><stop offset="0" stop-color="#1e9509"/><stop offset="1" stop-color="#127908"/></linearGradient><linearGradient x1="198.52301" y1="171.24229" x2="282.78559" y2="171.24229" gradientUnits="userSpaceOnUse" id="color-4"><stop offset="0" stop-color="#1e9509"/><stop offset="1" stop-color="#127908"/></linearGradient><linearGradient x1="200.53886" y1="143.02037" x2="279.56023" y2="143.02037" gradientUnits="userSpaceOnUse" id="color-5"><stop offset="0" stop-color="#1e9509"/><stop offset="1" stop-color="#127908"/></linearGradient><linearGradient x1="215.05299" y1="214.82775" x2="248.51612" y2="214.82775" gradientUnits="userSpaceOnUse" id="color-6"><stop offset="0" stop-color="#1e9509"/><stop offset="1" stop-color="#127908"/></linearGradient></defs><g transform="translate(-191.70035,-131.70035)"><g data-paper-data="{&quot;isPaintingLayer&quot;:true}" fill-rule="nonzero" stroke-linejoin="miter" stroke-miterlimit="10" stroke-dasharray="" stroke-dashoffset="0" style="mix-blend-mode: normal"><g stroke="none" stroke-width="0" stroke-linecap="butt"><path d="M191.70035,180c0,-26.67516 21.62449,-48.29965 48.29966,-48.29965c26.67516,0 48.29965,21.62449 48.29965,48.29966c0,26.67516 -21.62449,48.29965 -48.29965,48.29965c-26.67516,0 -48.29965,-21.62449 -48.29965,-48.29965z" fill="#0d6e04"/><path d="M196.42898,180c0,-24.06361 19.5074,-43.57101 43.57101,-43.57101c24.06361,0 43.57102,19.5074 43.57102,43.57101c0,24.06361 -19.50741,43.57101 -43.57102,43.57101c-24.06361,0 -43.57101,-19.5074 -43.57101,-43.57101z" fill="url(#color-1)"/></g><path d="M274.7734,180.47017c0,23.17557 -17.4417,41.96308 -38.95714,41.96308c-21.51543,0 -38.95714,-18.78751 -38.95714,-41.96307c0,-23.17557 17.44171,-41.96307 38.95714,-41.96307c21.51544,0 38.95714,18.7875 38.95714,41.96307z" fill="url(#color-2)" stroke="none" stroke-width="0" stroke-linecap="butt"/><path d="M282.78559,187.42873c0,0 -0.9317,10.17078 -5.26096,12.904c-7.54082,4.76079 -13.2398,7.45609 -27.59741,7.45609c-1.22525,0 -3.64971,-1.82538 -7.03019,-2.22815c-5.76682,-0.6871 -13.5457,-0.31467 -17.31999,-1.9958c-5.12319,-2.28195 -9.99822,-8.81742 -14.02267,-10.25154c-10.09771,-3.59834 -13.94115,-2.23801 -13.94115,-2.23801l-1.10606,-8.48463c0,0 10.45922,4.05505 19.92937,3.44905c6.33531,-0.4054 10.41496,4.60148 15.94454,6.93873c2.27408,0.96121 6.16975,-1.71962 8.6764,-1.71962c5.91219,0 11.58673,2.56009 16.74336,2.17301c14.55559,-1.0926 24.98476,-6.00313 24.98476,-6.00313z" fill="url(#color-3)" stroke="none" stroke-width="0" stroke-linecap="butt"/><path d="M282.78559,171.24229l1.1678,11.08409c0,0 -2.05138,-3.33818 -6.81835,-4.61025c-4.54331,-1.21239 -11.07392,-5.24344 -17.72774,-5.26644c-5.16435,-0.01784 -8.95054,2.77226 -12.52899,2.14773c-7.40628,-1.29259 -8.0044,-3.35513 -13.48107,-3.35513c-23.26847,0 -36.48691,2.82219 -36.48691,2.82219l1.37197,-6.87895c0,0 19.07687,-5.50873 33.34922,-7.23336c4.05679,-0.49021 5.87244,0.80769 9.02278,0.80769c4.41555,0 8.67245,-2.44471 12.6719,-1.83301c17.07633,2.61174 29.45939,12.31544 29.45939,12.31544z" fill="url(#color-4)" stroke="none" stroke-width="0" stroke-linecap="butt"/><path d="M278.75389,157.93767c0,0 -16.88319,-8.86974 -38.70434,-8.86974c-5.8079,0 -9.91035,2.69468 -15.17067,4.87443c-3.17879,1.31721 -5.86578,0.81411 -8.75347,2.37341c-10.28768,5.55516 -18.40873,13.71702 -18.40873,13.71702c0,0 1.76345,-9.69838 7.86799,-16.91594c7.69138,-9.09373 25.12154,-13.725 37.28707,-13.725c9.96727,0 28.07264,8.80848 28.07264,8.80848z" fill="url(#color-5)" stroke="none" stroke-width="0" stroke-linecap="butt"/><path d="M259.80489,219.26262c0,0 -13.70234,6.36867 -28.02033,4.63646c-17.08129,-2.06653 -26.40765,-17.13474 -26.40765,-17.13474c0,0 9.83561,5.03717 17.94107,9.4745c3.41495,1.86952 8.83256,3.51009 15.18471,4.32474c10.08633,1.29355 21.3022,-1.30096 21.3022,-1.30096z" fill="url(#color-6)" stroke="none" stroke-width="0" stroke-linecap="butt"/><path d="M266.44241,144.23135c2.70679,3.48394 2.47088,8.19635 -0.52693,10.52545c-2.99781,2.3291 -6.4128,0.98975 -9.11959,-2.49419c-2.70679,-3.48394 -3.68039,-7.79318 -0.68258,-10.12228c2.99781,-2.3291 7.6223,-1.39291 10.3291,2.09103z" fill="#fffffe" stroke="none" stroke-width="0" stroke-linecap="butt"/><path d="M268.27146,161.16288c0,-1.64612 1.33443,-2.98055 2.98055,-2.98055c1.64612,0 2.98056,1.33444 2.98056,2.98055c0,1.64612 -1.33444,2.98055 -2.98056,2.98055c-1.64612,0 -2.98055,-1.33444 -2.98055,-2.98055z" fill="#fffffe" stroke="none" stroke-width="0" stroke-linecap="butt"/><path d="M254.92362,173.18681c0,-3.22864 2.61733,-5.84597 5.84597,-5.84597c3.22864,0 5.84596,2.61733 5.84596,5.84597c0,3.22864 -2.61732,5.84597 -5.84596,5.84597c-3.22864,0 -5.84597,-2.61733 -5.84597,-5.84597z" fill="#082d06" stroke="none" stroke-width="0" stroke-linecap="butt"/><g fill="none" stroke="#000000" stroke-width="4" stroke-linecap="round"><path d="M216.82404,168.14718l7.86181,4.7171"/><path d="M224.23441,173.31067l-6.10007,5.31894"/></g><path d="M235.02449,180.2588c0,0 2.27895,6.04755 4.0317,6.04755c2.08619,0 4.43487,-6.04755 4.43487,-6.04755" fill="none" stroke="#000000" stroke-width="4" stroke-linecap="round"/></g></g></svg>