<svg version="1.1" xmlns="http://www.w3.org/2000/svg" xmlns:xlink="http://www.w3.org/1999/xlink" width="99.6745" height="107.46359" viewBox="0,0,99.6745,107.46359"><defs><linearGradient x1="193.23905" y1="177.31516" x2="281.8231" y2="177.31516" gradientUnits="userSpaceOnUse" id="color-1"><stop offset="0" stop-color="#ffb603"/><stop offset="1" stop-color="#fdac01"/></linearGradient><linearGradient x1="241.62973" y1="136.19625" x2="241.62973" y2="145.5862" gradientUnits="userSpaceOnUse" id="color-2"><stop offset="0" stop-color="#f39205"/><stop offset="1" stop-color="#f39205" stop-opacity="0"/></linearGradient></defs><g transform="translate(-190.16275,-126.26821)"><g data-paper-data="{&quot;isPaintingLayer&quot;:true}" fill-rule="nonzero" stroke-linecap="butt" stroke-linejoin="miter" stroke-miterlimit="10" stroke-dasharray="" stroke-dashoffset="0" style="mix-blend-mode: normal"><path d="M190.16275,183.89453c0,-20.48971 12.36498,-38.09144 30.04009,-45.75029c2.7952,-1.2112 1.90152,-8.71837 4.39324,-10.57859c0.56909,-0.42485 2.96807,-1.64204 4.24867,-1.13656c1.97353,0.77899 2.90052,3.57977 2.90052,3.57977c0,0 1.23931,-3.05157 3.6641,-3.22775c3.33261,-0.24215 5.10359,3.12181 5.10359,3.12181c0,0 0.53918,-3.59601 3.7214,-3.41715c3.63339,0.20422 3.71176,3.99208 3.71176,3.99208c0,0 2.2298,-3.43841 4.87679,-4.09406c2.54824,-0.63119 5.50762,1.51255 5.99515,1.85573c2.88483,2.03068 0.31551,9.49268 3.40772,11.03598c16.36881,8.1695 27.61147,25.08133 27.61147,44.61904c0,27.52435 -22.3129,49.83725 -49.83725,49.83725c-27.52435,0 -49.83724,-22.31289 -49.83724,-49.83724z" fill="#d6870e" stroke="none" stroke-width="0"/><path d="M193.23905,183.65413c0,-19.22494 11.60173,-35.74017 28.1858,-42.92626c2.62266,-1.13643 1.78414,-8.18022 4.12205,-9.9256c0.53395,-0.39863 2.78486,-1.54068 3.98642,-1.06641c1.85171,0.7309 2.72149,3.35881 2.72149,3.35881c0,0 1.16281,-2.8632 3.43792,-3.02851c3.12689,-0.2272 4.78856,2.92911 4.78856,2.92911c0,0 0.5059,-3.37404 3.49168,-3.20622c3.40911,0.19162 3.48265,3.74566 3.48265,3.74566c0,0 2.09215,-3.22617 4.57575,-3.84135c2.39094,-0.59223 5.16765,1.41918 5.62509,1.74118c2.70676,1.90533 0.29604,8.90673 3.19737,10.35476c15.35841,7.66521 25.90709,23.53314 25.90709,41.86483c0,25.82536 -20.93559,46.76094 -46.76094,46.76094c-25.82535,0 -46.76094,-20.93558 -46.76094,-46.76094z" fill="#fa9b00" stroke="none" stroke-width="0"/><path d="M193.23905,183.65413c0,-19.22494 11.60173,-35.74017 28.1858,-42.92626c2.62266,-1.13643 1.78414,-8.18022 4.12205,-9.9256c0.53395,-0.39863 2.78486,-1.54068 3.98642,-1.06641c1.85171,0.7309 2.72149,3.35881 2.72149,3.35881c0,0 1.16281,-2.8632 3.43792,-3.02851c3.12689,-0.2272 4.78856,2.92911 4.78856,2.92911c0,0 0.5059,-3.37404 3.49168,-3.20622c3.40911,0.19162 3.48265,3.74566 3.48265,3.74566c0,0 2.09215,-3.22617 4.57575,-3.84135c2.39094,-0.59223 5.16765,1.41918 5.62509,1.74118c2.70676,1.90533 0.29604,8.90673 3.19737,10.35476c15.35841,7.66521 21.85451,24.56625 20.87302,42.87165c-1.00682,18.77767 -19.92877,40.38446 -45.75413,40.38446c-25.82535,0 -42.73369,-15.56591 -42.73369,-41.39127z" fill="url(#color-1)" stroke="none" stroke-width="0"/><path d="M259.41676,140.04873c0,3.05826 -10.17274,2.77345 -17.9574,2.77345c-7.78466,0 -17.61666,-2.06442 -17.61666,-5.12268c0,-0.70554 0.60041,0.16834 2.39583,-0.60081c2.27712,-0.97552 5.86481,-3.52354 5.86481,-3.52354c0,0 2.14904,1.03352 3.26246,0.90278c1.38663,-0.16283 4.41897,-1.80479 4.41897,-1.80479c0,0 3.08711,1.32978 4.3636,1.50741c1.44193,0.20065 3.85229,-0.36416 3.85229,-0.36416c0,0 3.85448,-0.11755 6.70618,1.23039c2.85635,1.35014 4.70992,4.16646 4.70992,5.00195z" fill="url(#color-2)" stroke="none" stroke-width="0"/><g><path d="M215.38126,179.46241c0,-2.15102 1.74374,-3.89477 3.89476,-3.89477c2.15102,0 3.89477,1.74375 3.89477,3.89477c0,2.15102 -1.74375,3.89477 -3.89477,3.89477c-2.15102,0 -3.89476,-1.74375 -3.89476,-3.89477z" fill="#fdf9da" stroke="#c68814" stroke-width="2"/><path d="M258.82638,179.4369c0,-2.15102 1.74374,-3.89477 3.89476,-3.89477c2.15102,0 3.89477,1.74375 3.89477,3.89477c0,2.15102 -1.74375,3.89477 -3.89477,3.89477c-2.15102,0 -3.89476,-1.74375 -3.89476,-3.89477z" fill="#fdf9da" stroke="#c68814" stroke-width="2"/><path d="M235.29406,190.45629c-0.93566,-1.72914 0.91261,-8.10421 1.82251,-9.10931c0.49344,-0.54507 3.6547,-1.39452 5.29129,0.16357c1.49911,1.4272 3.49112,7.4422 2.4626,9.29053c-0.56375,1.0131 -8.89869,0.90767 -9.5764,-0.34479z" fill="#fdf9da" stroke="#c68814" stroke-width="2"/><path d="M194.86647,172.84856c0,-1.22877 0.99612,-2.22489 2.22489,-2.22489c1.22877,0 2.22489,0.99612 2.22489,2.22489c0,1.22877 -0.99612,2.22489 -2.22489,2.22489c-1.22877,0 -2.22489,-0.99612 -2.22489,-2.22489z" fill="#e98d00" stroke="none" stroke-width="0"/><path d="M206.30877,200.81862c0,-1.22877 0.99612,-2.22489 2.22489,-2.22489c1.22877,0 2.22489,0.99612 2.22489,2.22489c0,1.22877 -0.99612,2.22489 -2.22489,2.22489c-1.22877,0 -2.22489,-0.99612 -2.22489,-2.22489z" fill="#e98d00" stroke="none" stroke-width="0"/><path d="M255.25639,218.14099c0,-1.66762 1.35187,-3.0195 3.0195,-3.0195c1.66762,0 3.0195,1.35187 3.0195,3.0195c0,1.66762 -1.35187,3.0195 -3.0195,3.0195c-1.66762,0 -3.0195,-1.35187 -3.0195,-3.0195z" fill="#e98d00" stroke="none" stroke-width="0"/><path d="M267.97006,200.34186c0,-1.66762 1.35187,-3.0195 3.0195,-3.0195c1.66762,0 3.0195,1.35187 3.0195,3.0195c0,1.66762 -1.35187,3.0195 -3.0195,3.0195c-1.66762,0 -3.0195,-1.35187 -3.0195,-3.0195z" fill="#e98d00" stroke="none" stroke-width="0"/><path d="M270.83063,211.94308c0,-1.05323 0.85382,-1.90705 1.90705,-1.90705c1.05323,0 1.90705,0.85382 1.90705,1.90705c0,1.05323 -0.85382,1.90705 -1.90705,1.90705c-1.05323,0 -1.90705,-0.85382 -1.90705,-1.90705z" fill="#e98d00" stroke="none" stroke-width="0"/><path d="M280.68372,167.44525c0,1.40431 -1.06727,2.54273 -2.38381,2.54273c-1.31654,0 -2.38381,-1.13842 -2.38381,-2.54273c0,-1.40431 1.06727,-2.54273 2.38381,-2.54273c1.31654,0 2.38381,1.13842 2.38381,2.54273z" fill="#e98d00" stroke="none" stroke-width="0"/><path d="M274.00905,176.82158c0,-0.96547 0.78266,-1.74813 1.74813,-1.74813c0.96547,0 1.74813,0.78266 1.74813,1.74813c0,0.96547 -0.78266,1.74813 -1.74813,1.74813c-0.96547,0 -1.74813,-0.78266 -1.74813,-1.74813z" fill="#e98d00" stroke="none" stroke-width="0"/></g><path d="M226.81517,132.05383c0,-1.141 0.92497,-2.06597 2.06597,-2.06597c1.141,0 2.06597,0.92497 2.06597,2.06597c0,1.141 -0.92497,2.06597 -2.06597,2.06597c-1.141,0 -2.06597,-0.92497 -2.06597,-2.06597z" fill="#fbbd13" stroke="none" stroke-width="0"/><path d="M237.30394,134.27872c0,0.96547 -1.06727,1.74813 -2.38381,1.74813c-1.31654,0 -2.38381,-0.78266 -2.38381,-1.74813c0,-0.96547 1.06727,-1.74813 2.38381,-1.74813c1.31654,0 2.38381,0.78266 2.38381,1.74813z" fill="#fbbd13" stroke="none" stroke-width="0"/><path d="M243.66078,132.53059c0,0.70216 -0.71151,1.27137 -1.58921,1.27137c-0.8777,0 -1.58921,-0.56921 -1.58921,-1.27137c0,-0.70216 0.71151,-1.27137 1.58921,-1.27137c0.8777,0 1.58921,0.56921 1.58921,1.27137z" fill="#fbbd13" stroke="none" stroke-width="0"/><path d="M254.78524,130.3057c0,1.22877 -0.99612,2.22489 -2.22489,2.22489c-1.22877,0 -2.22489,-0.99612 -2.22489,-2.22489c0,-1.22877 0.99612,-2.22489 2.22489,-2.22489c1.22877,0 2.22489,0.99612 2.22489,2.22489z" fill="#fbbd13" stroke="none" stroke-width="0"/></g></g></svg>