<svg version="1.1" xmlns="http://www.w3.org/2000/svg" xmlns:xlink="http://www.w3.org/1999/xlink" width="64.00332" height="65.00526" viewBox="0,0,64.00332,65.00526"><g transform="translate(-372.99833,17.50264)"><g data-paper-data="{&quot;isPaintingLayer&quot;:true}" fill-rule="nonzero" stroke-linejoin="miter" stroke-miterlimit="10" stroke-dasharray="" stroke-dashoffset="0" style="mix-blend-mode: normal"><path d="M399.81548,-1.44433c-0.60982,5.67248 -5.3476,10.33012 -11.9442,10.33012c-2.37759,0 -7.39823,0.68284 -9.32034,-1.91175c-1.54585,-2.08668 -0.09939,-7.20537 -1.18013,-9.56429c-1.30381,-2.84582 -2.51979,-4.82178 -2.51979,-6.8169c0,-3.50646 3.93298,-1.87526 7.3348,-1.42421c2.1331,0.28283 0.13025,-4.8169 2.67251,-4.8169c6.5966,0 16.03321,4.19453 14.95716,14.20392z" fill="#adf132" stroke="#7aa237" stroke-width="3" stroke-linecap="butt"/><path d="M436.9949,13.58796c0,3.54932 -2.1913,14.50006 -2.1913,14.50006c0,0 -0.74769,13.79513 -5.29011,17.00524c-6.42071,4.53747 -15.68244,1.13497 -15.68244,1.13497c0,0 -6.05306,1.2744 -10.2776,1.2744c-3.77074,0 -12.79993,-4.68917 -12.79993,-4.68917c0,0 -10.75545,-0.86605 -13.48027,-3.96859c-6.14188,-6.99329 -1.8684,-16.64211 -1.8684,-16.64211c0,0 -5.019,-12.21351 -0.56057,-19.3413c5.0029,-7.99824 19.23761,-2.71524 19.23761,-2.71524c0,0 -2.28098,-17.03948 13.25737,-17.63355c11.16182,-0.42675 11.49776,8.21475 11.49776,8.21475c0,0 7.09134,-1.4448 13.68855,4.17958c4.84514,4.13067 4.4693,12.73764 4.4693,18.68097z" fill="#782fe0" stroke="none" stroke-width="NaN" stroke-linecap="butt"/><path d="M435.27358,13.66393c0,3.35837 -2.07341,13.71996 -2.07341,13.71996c0,0 -0.70746,13.05296 -5.0055,16.09036c-6.07527,4.29336 -14.83872,1.07391 -14.83872,1.07391c0,0 -5.72741,1.20584 -9.72467,1.20584c-3.56788,0 -12.11129,-4.43689 -12.11129,-4.43689c0,0 -10.17682,-0.81946 -12.75503,-3.75508c-5.81144,-6.61705 -1.76788,-15.74677 -1.76788,-15.74677c0,0 -4.74898,-11.55643 -0.53041,-18.30074c4.73376,-7.56794 18.20263,-2.56916 18.20263,-2.56916c0,0 -2.15827,-16.12276 12.54412,-16.68487c10.56132,-0.40379 10.87919,7.7728 10.87919,7.7728c0,0 6.70983,-1.36707 12.95211,3.95472c4.58447,3.90844 4.22885,12.05235 4.22885,17.67594z" fill="#924bfe" stroke="none" stroke-width="NaN" stroke-linecap="butt"/><g fill="#a26cff" stroke="none" stroke-width="0" stroke-linecap="butt"><path d="M413.78158,31.865c0,4.57602 -4.76949,8.28562 -10.65294,8.28562c-5.88346,0 -10.65294,-3.7096 -10.65294,-8.28562c0,-2.51146 -0.06984,-5.62278 2.19913,-7.14226c1.86522,-1.2491 5.79938,-1.14336 8.45382,-1.14336c5.88346,0 10.65294,3.7096 10.65294,8.28562z"/><path d="M391.83007,23.68699c0,4.3383 -0.11536,8.28562 -3.44338,8.28562c-3.32802,0 -6.24111,-3.30168 -6.24111,-7.63999c0,-4.3383 1.62183,-8.93125 4.94985,-8.93125c5.48012,0 4.73464,3.94732 4.73464,8.28562z"/><path d="M431.21367,28.95965c0,3.80345 -2.51469,10.76055 -7.20957,10.76055c-4.69488,0 -9.57688,-0.9312 -9.57688,-4.73464c0,-2.12759 -1.16463,-6.9359 0.18183,-8.48557c1.06057,-1.22064 4.73317,0.26385 8.319,0.73797c4.65437,0.61541 8.28562,-2.08176 8.28562,1.72169z"/><path d="M395.40088,3.66342c1.64857,2.23734 -2.36658,3.33526 -4.09583,5.41828c-0.56342,0.67868 -0.64977,3.71502 -1.54333,4.37344c-1.58156,1.16536 -2.97839,0.38385 -4.71824,0.83017c-2.26017,0.57979 -3.72722,3.98473 -4.96222,2.30865c-2.1857,-2.9663 -1.65553,-10.34065 1.98057,-13.01989c3.63611,-2.67924 11.15336,-2.87695 13.33905,0.08935z"/><path d="M413.75745,-6.2037c0.50242,1.5529 -3.21721,3.16162 -3.90291,4.83571c-0.81234,1.98325 0.72679,3.75623 -1.94076,4.61926c-1.77575,0.57451 -2.45111,-1.05444 -4.29105,-1.33009c-3.25715,-0.48797 -6.11449,0.9401 -6.60346,-1.2854c-1.31281,-5.97513 1.57004,-8.9395 5.84367,-10.53103c4.84523,-1.80439 9.7969,0.29895 10.8945,3.69155z"/><path d="M414.212,16.36981c0,5.28917 -4.57678,9.57689 -10.22252,9.57689c-5.64574,0 -10.22252,-4.28772 -10.22252,-9.57689c0,-5.28917 4.57678,-9.57689 10.22252,-9.57689c5.64574,0 10.22252,4.28772 10.22252,9.57689z"/><path d="M429.06156,16.1546c0,6.71546 -2.22563,10.22252 -6.56394,10.22252c-2.18456,0 -7.08549,-1.10378 -7.55486,-3.24681c-0.46274,-2.1128 2.20524,-3.30488 1.42135,-6.54529c-1.9369,-8.00673 0.50394,-12.58983 4.84224,-12.58983c4.3383,0 7.85521,5.44395 7.85521,12.15941z"/><path d="M430.35283,4.85603c-0.78736,1.59958 -3.69916,-4.18165 -9.03886,-2.58253c-4.92288,1.47429 -9.03886,1.13723 -9.03886,-0.64563c0,-3.93497 3.73528,-7.31717 8.60844,-7.31717c4.87317,0 11.40618,6.61035 9.46928,10.54533z"/></g><path d="M417.54998,8.51384c0,2.17997 -1.36286,3.94717 -3.04402,3.94717c-1.68117,0 -3.04402,-1.76721 -3.04402,-3.94717c0,-2.17997 1.36286,-3.94717 3.04402,-3.94717c1.68117,0 3.04402,1.76721 3.04402,3.94717z" fill="#7118e9" stroke="none" stroke-width="0" stroke-linecap="butt"/><path d="M396.39722,19.7279c2.17997,0 3.94717,1.41103 3.94717,3.15163c0,1.7406 -1.76721,3.15163 -3.94717,3.15163c-2.17997,0 -3.94717,-1.41103 -3.94717,-3.15163c0,-1.7406 1.76721,-3.15163 3.94717,-3.15163z" fill="#7118e9" stroke="none" stroke-width="0" stroke-linecap="butt"/><path d="M413.47124,22.19738c0,1.45331 -1.35486,2.63145 -3.02617,2.63145c-1.67131,0 -3.02617,-1.17814 -3.02617,-2.63145c0,-1.45331 1.35487,-2.63145 3.02617,-2.63145c1.6713,0 3.02617,1.17814 3.02617,2.63145z" fill="#fad1ff" stroke="none" stroke-width="0" stroke-linecap="butt"/><path d="M410.05034,16.27661c0,0 0.2013,1.90967 -1.75339,3.19216c-1.35455,0.88874 -3.77265,1.28131 -3.77265,1.28131" fill="none" stroke="#7525e0" stroke-width="3" stroke-linecap="round"/><path d="M410.18192,18.64491c0,0 6.58533,2.52337 2.29482,5.78796c-4.68812,3.56713 -5.18942,-3.55123 -5.18942,-3.55123" fill="none" stroke="#7525e0" stroke-width="3" stroke-linecap="round"/><path d="M409.65564,21.01322l-0.78944,-1.05258" fill="none" stroke="#7525e0" stroke-width="3" stroke-linecap="round"/></g></g></svg>