<svg version="1.1" xmlns="http://www.w3.org/2000/svg" xmlns:xlink="http://www.w3.org/1999/xlink" width="98.14868" height="133.51344" viewBox="0,0,98.14868,133.51344"><defs><linearGradient x1="243.67754" y1="164.34988" x2="243.67754" y2="234.24018" gradientUnits="userSpaceOnUse" id="color-1"><stop offset="0" stop-color="#f71d15"/><stop offset="1" stop-color="#df0705"/></linearGradient></defs><g transform="translate(-191.77569,-112.36828)"><g data-paper-data="{&quot;isPaintingLayer&quot;:true}" fill-rule="nonzero" stroke-linejoin="miter" stroke-miterlimit="10" stroke-dasharray="" stroke-dashoffset="0" style="mix-blend-mode: normal"><path d="M191.77569,197.65741c0,-26.63355 21.59076,-48.22431 48.22431,-48.22431c26.63355,0 48.22431,21.59076 48.22431,48.22431c0,26.63355 -21.59076,48.22431 -48.22431,48.22431c-26.63355,0 -48.22431,-21.59076 -48.22431,-48.22431z" fill="#ad2407" stroke="none" stroke-width="0" stroke-linecap="butt"/><path d="M195.81308,197.65741c0,-24.40376 19.78316,-44.18692 44.18693,-44.18692c24.40376,0 44.18692,19.78316 44.18692,44.18693c0,24.40376 -19.78316,44.18693 -44.18692,44.18693c-24.40376,0 -44.18692,-19.78316 -44.18692,-44.18692z" fill="#e52e1f" stroke="none" stroke-width="0" stroke-linecap="butt"/><g fill="#72cd57" stroke="#7ba952" stroke-width="3.5" stroke-linecap="butt"><path d="M247.638,138.49047c-0.84201,9.09629 3.50252,18.46405 -0.93187,19.80225c-4.63192,1.39781 -9.78464,-8.80334 -8.38683,-21.66599c0.39187,-3.60606 1.13597,-9.21045 3.86633,-13.35895c4.14593,-6.29932 11.04648,-10.45855 13.83921,-8.77298c2.62263,1.58289 -2.41613,5.30039 -5.76812,11.81103c-1.71648,3.33395 -2.30313,8.77536 -2.61872,12.18464z"/><path d="M288.17437,134.76298c0,3.57139 -13.30966,12.34729 -22.83083,12.34729c-9.52117,0 -16.5775,-8.78351 -16.30774,-15.1429c0.32965,-7.77104 4.92282,-10.94948 14.44399,-10.94948c4.48346,0 9.34105,6.76131 13.71931,8.81683c4.91951,2.30963 10.97527,3.28514 10.97527,4.92826z"/></g><path d="M280.7194,197.89722c-4.65936,20.23155 -18.17691,42.40012 -36.57593,42.40012c-18.39902,0 -39.83747,-24.49825 -40.76934,-49.38915c-0.72204,-19.28616 15.09255,-30.52484 33.78031,-25.16051c7.77503,2.23182 10.6179,12.33283 12.86801,12.75236c15.91966,2.96825 34.49192,2.91889 30.69695,19.39718z" fill="url(#color-1)" stroke="none" stroke-width="0" stroke-linecap="butt"/><path d="M238.75381,190.50787c0.37815,2.54535 -3.46733,1.92827 -9.70344,2.85474c-6.23612,0.92647 -12.36443,3.9674 -12.74258,1.42205c-0.37815,-2.54535 5.08701,-6.87939 11.32313,-7.80586c6.23612,-0.92647 10.74475,0.98372 11.1229,3.52907z" fill="#b11400" stroke="none" stroke-width="0" stroke-linecap="butt"/><path d="M277.71252,192.84303c-0.25893,2.53867 -4.90778,0.86547 -8.79046,0.46946c-3.88268,-0.396 -8.17766,-0.18142 -7.91873,-2.72009c0.25893,-2.53867 5.1284,-3.02861 9.01108,-2.63261c3.88268,0.396 7.95704,2.34456 7.69812,4.88324z" fill="#b11400" stroke="none" stroke-width="0" stroke-linecap="butt"/><path d="M254.51565,199.1691c0,0 -1.9915,2.86057 -5.4033,2.86057c-2.14328,0 -4.76763,-2.86057 -4.76763,-2.86057" fill="none" stroke="#b11400" stroke-width="3" stroke-linecap="round"/><path d="M230.04185,201.07615c0,-0.70216 0.56921,-1.27137 1.27137,-1.27137c0.70216,0 1.27137,0.56921 1.27137,1.27137c0,0.70216 -0.56921,1.27137 -1.27137,1.27137c-0.70216,0 -1.27137,-0.56921 -1.27137,-1.27137z" fill="#b11400" stroke="none" stroke-width="0" stroke-linecap="butt"/><path d="M223.68501,201.71184c0,-1.05323 0.85382,-1.90705 1.90705,-1.90705c1.05323,0 1.90705,0.85382 1.90705,1.90705c0,1.05323 -0.85382,1.90705 -1.90705,1.90705c-1.05323,0 -1.90705,-0.85382 -1.90705,-1.90705z" fill="#b11400" stroke="none" stroke-width="0" stroke-linecap="butt"/><path d="M216.05681,202.66536c0,-1.40431 1.13842,-2.54273 2.54273,-2.54273c1.40431,0 2.54273,1.13842 2.54273,2.54273c0,1.40431 -1.13842,2.54273 -2.54273,2.54273c-1.40431,0 -2.54273,-1.13842 -2.54273,-2.54273z" fill="#b11400" stroke="none" stroke-width="0" stroke-linecap="butt"/><path d="M264.0509,200.28155c0,-0.78993 0.64036,-1.43029 1.43029,-1.43029c0.78993,0 1.43029,0.64036 1.43029,1.43029c0,0.78993 -0.64036,1.43029 -1.43029,1.43029c-0.78993,0 -1.43029,-0.64036 -1.43029,-1.43029z" fill="#b11400" stroke="none" stroke-width="0" stroke-linecap="butt"/><path d="M269.45421,200.12263c0,-0.8777 0.71151,-1.58921 1.58921,-1.58921c0.8777,0 1.58921,0.71151 1.58921,1.58921c0,0.8777 -0.71151,1.58921 -1.58921,1.58921c-0.8777,0 -1.58921,-0.71151 -1.58921,-1.58921z" fill="#b11400" stroke="none" stroke-width="0" stroke-linecap="butt"/><path d="M275.17536,200.91723c0,-0.96547 0.78266,-1.74813 1.74813,-1.74813c0.96547,0 1.74813,0.78266 1.74813,1.74813c0,0.96547 -0.78266,1.74813 -1.74813,1.74813c-0.96547,0 -1.74813,-0.78266 -1.74813,-1.74813z" fill="#b11400" stroke="none" stroke-width="0" stroke-linecap="butt"/></g></g></svg>