<svg version="1.1" xmlns="http://www.w3.org/2000/svg" xmlns:xlink="http://www.w3.org/1999/xlink" width="71.84893" height="77.4636" viewBox="0,0,71.84893,77.4636"><defs><linearGradient x1="371.29304" y1="13.06467" x2="435.14758" y2="13.06467" gradientUnits="userSpaceOnUse" id="color-1"><stop offset="0" stop-color="#ffb603"/><stop offset="1" stop-color="#fdac01"/></linearGradient><linearGradient x1="406.17477" y1="-16.5753" x2="406.17477" y2="-9.80669" gradientUnits="userSpaceOnUse" id="color-2"><stop offset="0" stop-color="#f39205"/><stop offset="1" stop-color="#f39205" stop-opacity="0"/></linearGradient></defs><g transform="translate(-369.07553,23.73178)"><g data-paper-data="{&quot;isPaintingLayer&quot;:true}" fill-rule="nonzero" stroke-linecap="butt" stroke-linejoin="miter" stroke-miterlimit="10" stroke-dasharray="" stroke-dashoffset="0" style="mix-blend-mode: normal"><path d="M369.07553,17.80732c0,-14.76971 8.91312,-27.45767 21.65397,-32.97844c2.01488,-0.87308 1.37068,-6.28451 3.1668,-7.62542c0.41022,-0.30625 2.13949,-1.18364 3.06259,-0.81927c1.42259,0.56152 2.0908,2.58043 2.0908,2.58043c0,0 0.89334,-2.19968 2.64121,-2.32668c2.40226,-0.17455 3.67885,2.25031 3.67885,2.25031c0,0 0.38866,-2.59213 2.68252,-2.4632c2.61908,0.14721 2.67557,2.87763 2.67557,2.87763c0,0 1.60732,-2.47853 3.51536,-2.95114c1.83686,-0.45498 3.97009,1.0903 4.32152,1.33768c2.07949,1.46379 0.22743,6.84266 2.45641,7.95513c11.79922,5.88887 19.90333,18.07952 19.90333,32.163c0,19.84053 -16.08393,35.92447 -35.92447,35.92447c-19.84053,0 -35.92446,-16.08393 -35.92446,-35.92446z" fill="#d6870e" stroke="none" stroke-width="0"/><path d="M371.29304,17.63403c0,-13.85802 8.36294,-25.76279 20.31733,-30.94278c1.89051,-0.81918 1.28607,-5.89659 2.97132,-7.15473c0.38489,-0.28735 2.00743,-1.11058 2.87355,-0.76871c1.33478,0.52686 1.96175,2.42115 1.96175,2.42115c0,0 0.83819,-2.0639 2.47818,-2.18306c2.25397,-0.16377 3.45176,2.11141 3.45176,2.11141c0,0 0.36467,-2.43213 2.51693,-2.31116c2.45741,0.13813 2.51042,2.70001 2.51042,2.70001c0,0 1.5081,-2.32554 3.29836,-2.76898c1.72347,-0.4269 3.72503,1.023 4.05477,1.2551c1.95113,1.37343 0.2134,6.42029 2.30478,7.46408c11.07089,5.52536 18.67475,16.96353 18.67475,30.17766c0,18.61584 -15.09112,33.70695 -33.70695,33.70695c-18.61583,0 -33.70695,-15.09111 -33.70695,-33.70695z" fill="#fa9b00" stroke="none" stroke-width="0"/><path d="M371.29304,17.63403c0,-13.85802 8.36294,-25.76279 20.31733,-30.94278c1.89051,-0.81918 1.28607,-5.89659 2.97132,-7.15473c0.38489,-0.28735 2.00743,-1.11058 2.87355,-0.76871c1.33478,0.52686 1.96175,2.42115 1.96175,2.42115c0,0 0.83819,-2.0639 2.47818,-2.18306c2.25397,-0.16377 3.45176,2.11141 3.45176,2.11141c0,0 0.36467,-2.43213 2.51693,-2.31116c2.45741,0.13813 2.51042,2.70001 2.51042,2.70001c0,0 1.5081,-2.32554 3.29836,-2.76898c1.72347,-0.4269 3.72503,1.023 4.05477,1.2551c1.95113,1.37343 0.2134,6.42029 2.30478,7.46408c11.07089,5.52536 15.75351,17.70823 15.04602,30.90341c-0.72575,13.53561 -14.36537,29.11056 -32.98121,29.11056c-18.61583,0 -30.80397,-11.22046 -30.80397,-29.8363z" fill="url(#color-1)" stroke="none" stroke-width="0"/><path d="M418.99629,-13.7983c0,2.2045 -7.33287,1.9992 -12.94433,1.9992c-5.61146,0 -12.69872,-1.48811 -12.69872,-3.69261c0,-0.50858 0.4328,0.12135 1.727,-0.43309c1.64143,-0.70319 4.22756,-2.53989 4.22756,-2.53989c0,0 1.5491,0.745 2.3517,0.65076c0.99953,-0.11737 3.18535,-1.30096 3.18535,-1.30096c0,0 2.2253,0.95855 3.14544,1.08659c1.03939,0.14464 2.77687,-0.2625 2.77687,-0.2625c0,0 2.77845,-0.08473 4.83405,0.88691c2.05896,0.97323 3.39508,3.00333 3.39508,3.60558z" fill="url(#color-2)" stroke="none" stroke-width="0"/><g><path d="M387.25393,14.61249c0,-1.55053 1.25695,-2.80749 2.80748,-2.80749c1.55053,0 2.80749,1.25696 2.80749,2.80749c0,1.55053 -1.25696,2.80749 -2.80749,2.80749c-1.55053,0 -2.80748,-1.25696 -2.80748,-2.80749z" fill="#fdf9da" stroke="#c68814" stroke-width="2"/><path d="M418.57073,14.5941c0,-1.55053 1.25695,-2.80749 2.80748,-2.80749c1.55053,0 2.80749,1.25696 2.80749,2.80749c0,1.55053 -1.25696,2.80749 -2.80749,2.80749c-1.55053,0 -2.80748,-1.25696 -2.80748,-2.80749z" fill="#fdf9da" stroke="#c68814" stroke-width="2"/><path d="M401.60779,22.53727c-0.67446,-1.24643 0.65784,-5.8418 1.31373,-6.56632c0.35569,-0.39291 2.63444,-1.00522 3.81415,0.11791c1.08061,1.02878 2.51652,5.3646 1.77513,6.69695c-0.40637,0.73028 -6.41449,0.65428 -6.90301,-0.24854z" fill="#fdf9da" stroke="#c68814" stroke-width="2"/><path d="M372.46614,9.84499c0,-0.88574 0.71804,-1.60378 1.60378,-1.60378c0.88574,0 1.60378,0.71804 1.60378,1.60378c0,0.88574 -0.71804,1.60378 -1.60378,1.60378c-0.88574,0 -1.60378,-0.71804 -1.60378,-1.60378z" fill="#e98d00" stroke="none" stroke-width="0"/><path d="M380.71416,30.00681c0,-0.88574 0.71804,-1.60378 1.60378,-1.60378c0.88574,0 1.60378,0.71804 1.60378,1.60378c0,0.88574 -0.71804,1.60378 -1.60378,1.60378c-0.88574,0 -1.60378,-0.71804 -1.60378,-1.60378z" fill="#e98d00" stroke="none" stroke-width="0"/><path d="M415.99735,42.49339c0,-1.20208 0.97448,-2.17656 2.17656,-2.17656c1.20208,0 2.17656,0.97448 2.17656,2.17656c0,1.20208 -0.97448,2.17656 -2.17656,2.17656c-1.20208,0 -2.17656,-0.97448 -2.17656,-2.17656z" fill="#e98d00" stroke="none" stroke-width="0"/><path d="M425.16182,29.66314c0,-1.20208 0.97448,-2.17656 2.17656,-2.17656c1.20208,0 2.17656,0.97448 2.17656,2.17656c0,1.20208 -0.97448,2.17656 -2.17656,2.17656c-1.20208,0 -2.17656,-0.97448 -2.17656,-2.17656z" fill="#e98d00" stroke="none" stroke-width="0"/><path d="M427.22382,38.02571c0,-0.75921 0.61546,-1.37467 1.37467,-1.37467c0.75921,0 1.37467,0.61546 1.37467,1.37467c0,0.75921 -0.61546,1.37467 -1.37467,1.37467c-0.75921,0 -1.37467,-0.61546 -1.37467,-1.37467z" fill="#e98d00" stroke="none" stroke-width="0"/><path d="M434.32628,5.95009c0,1.01228 -0.76933,1.83289 -1.71834,1.83289c-0.94901,0 -1.71834,-0.82061 -1.71834,-1.83289c0,-1.01228 0.76933,-1.83289 1.71834,-1.83289c0.94901,0 1.71834,0.82061 1.71834,1.83289z" fill="#e98d00" stroke="none" stroke-width="0"/><path d="M429.51494,12.70888c0,-0.69595 0.56417,-1.26011 1.26011,-1.26011c0.69595,0 1.26011,0.56417 1.26011,1.26011c0,0.69595 -0.56417,1.26011 -1.26011,1.26011c-0.69595,0 -1.26011,-0.56417 -1.26011,-1.26011z" fill="#e98d00" stroke="none" stroke-width="0"/></g><path d="M395.4959,-19.56131c0,-0.82247 0.66675,-1.48922 1.48922,-1.48922c0.82247,0 1.48922,0.66675 1.48922,1.48922c0,0.82247 -0.66675,1.48922 -1.48922,1.48922c-0.82247,0 -1.48922,-0.66675 -1.48922,-1.48922z" fill="#fbbd13" stroke="none" stroke-width="0"/><path d="M403.05658,-17.95753c0,0.69595 -0.76933,1.26011 -1.71834,1.26011c-0.94901,0 -1.71834,-0.56417 -1.71834,-1.26011c0,-0.69595 0.76933,-1.26011 1.71834,-1.26011c0.94901,0 1.71834,0.56417 1.71834,1.26011z" fill="#fbbd13" stroke="none" stroke-width="0"/><path d="M407.63882,-19.21764c0,0.50614 -0.51288,0.91645 -1.14556,0.91645c-0.63268,0 -1.14556,-0.41031 -1.14556,-0.91645c0,-0.50614 0.51288,-0.91645 1.14556,-0.91645c0.63268,0 1.14556,0.41031 1.14556,0.91645z" fill="#fbbd13" stroke="none" stroke-width="0"/><path d="M415.65773,-20.82142c0,0.88574 -0.71804,1.60378 -1.60378,1.60378c-0.88574,0 -1.60378,-0.71804 -1.60378,-1.60378c0,-0.88574 0.71804,-1.60378 1.60378,-1.60378c0.88574,0 1.60378,0.71804 1.60378,1.60378z" fill="#fbbd13" stroke="none" stroke-width="0"/></g></g></svg>