<svg version="1.1" xmlns="http://www.w3.org/2000/svg" xmlns:xlink="http://www.w3.org/1999/xlink" width="77.39459" height="82.20081" viewBox="0,0,77.39459,82.20081"><defs><linearGradient x1="405.00001" y1="-19.5872" x2="405.00001" y2="52.89344" gradientUnits="userSpaceOnUse" id="color-1"><stop offset="0" stop-color="#f76c0a"/><stop offset="1" stop-color="#fb8014"/></linearGradient><linearGradient x1="402.39063" y1="-18.29574" x2="402.39063" y2="47.63299" gradientUnits="userSpaceOnUse" id="color-2"><stop offset="0" stop-color="#fb8014"/><stop offset="1" stop-color="#fb8614"/></linearGradient></defs><g transform="translate(-366.3027,26.8504)"><g data-paper-data="{&quot;isPaintingLayer&quot;:true}" fill-rule="nonzero" stroke-linejoin="miter" stroke-miterlimit="10" stroke-dasharray="" stroke-dashoffset="0" style="mix-blend-mode: normal"><g stroke="none" stroke-width="0" stroke-linecap="butt"><path d="M366.3027,16.65312c0,-21.37193 17.32537,-38.69729 38.69729,-38.69729c21.37193,0 38.6973,17.32537 38.6973,38.69729c0,21.37193 -17.32537,38.69729 -38.6973,38.69729c-21.37193,0 -38.69729,-17.32537 -38.69729,-38.69729z" fill="#ee680e"/><path d="M368.75969,16.65312c0,-20.01498 16.22534,-36.24032 36.24032,-36.24032c20.01498,0 36.24032,16.22534 36.24032,36.24032c0,20.01498 -16.22534,36.24032 -36.24032,36.24032c-20.01498,0 -36.24032,-16.22534 -36.24032,-36.24032z" fill="url(#color-1)"/><path d="M369.42626,14.66862c-0.6139,-18.19536 15.57485,-34.05264 33.78057,-34.05264c20.92639,0 34.3247,15.30278 34.3247,33.5085c0,18.20571 -16.39104,35.9571 -34.59676,35.9571c-18.20571,0 -32.6923,-11.22178 -33.5085,-35.41296z" fill="url(#color-2)"/></g><g><path d="M418.2308,-18.34629c0,2.87712 2.38419,4.88389 -0.0814,5.04669c-0.87459,0.05775 -6.87193,-2.76578 -11.94218,-2.16401c-3.33886,0.39628 -11.15008,2.67173 -12.33937,1.76435c-1.74552,-1.33176 3.08875,-3.87678 2.58406,-5.51709c-0.22653,-0.73625 -3.12896,-1.5057 -3.12896,-2.54866c0,-1.70716 6.36895,-1.64272 10.2442,-2.63567c2.6558,-0.68048 0.46401,-0.98842 3.8377,-0.94585c2.35371,0.0297 2.71288,1.66758 4.10479,1.75118c3.74337,0.22483 8.1807,0.60504 9.55858,1.55146c1.32065,0.9071 -2.83742,2.51425 -2.83742,3.69762z" fill="#aeeb2f" stroke="#657c01" stroke-width="3" stroke-linecap="butt"/><path d="M384.36913,15.02697c0,-2.33766 1.89505,-4.2327 4.23271,-4.2327c2.33766,0 4.23271,1.89504 4.23271,4.2327c0,2.33766 -1.89505,4.23271 -4.23271,4.23271c-2.33766,0 -4.23271,-1.89505 -4.23271,-4.23271z" fill="#d52f18" stroke="none" stroke-width="0" stroke-linecap="butt"/><path d="M418.21426,15.17324c0,-2.33766 1.89505,-4.2327 4.23271,-4.2327c2.33766,0 4.23271,1.89504 4.23271,4.2327c0,2.33766 -1.89505,4.23271 -4.23271,4.23271c-2.33766,0 -4.23271,-1.89505 -4.23271,-4.23271z" fill="#d52f18" stroke="none" stroke-width="0" stroke-linecap="butt"/><path d="M399.36996,18.78449c0,0 1.53774,0.30926 2.09395,1.73931c1.01162,2.60096 0.34634,5.31041 0.34634,5.31041" fill="none" stroke="#da3c07" stroke-width="2" stroke-linecap="round"/><path d="M401.94583,22.58049c0,0 2.04019,-0.55244 3.01561,-0.62211c0.91926,-0.06566 3.22069,0.48654 3.22069,0.48654" fill="none" stroke="#da3c07" stroke-width="2" stroke-linecap="round"/><path d="M408.45325,24.61407c0,0 -0.19519,-1.56237 -0.15333,-2.27387c0.04775,-0.81173 0.42448,-2.33557 0.42448,-2.33557" fill="none" stroke="#da3c07" stroke-width="2" stroke-linecap="round"/><path d="M391.65145,-8.4618c1.78165,1.92178 0.66043,5.48109 -2.00261,7.94995c-2.66303,2.46885 -6.13059,4.67479 -7.91224,2.753c-1.78165,-1.92178 -1.06714,-6.83681 1.59589,-9.30567c2.66304,-2.46885 6.53731,-3.31907 8.31896,-1.39728z" fill="#efddab" stroke="#da3c07" stroke-width="0" stroke-linecap="butt"/><path d="M396.65854,-9.4144c0,-1.19799 0.97116,-2.16915 2.16915,-2.16915c1.19799,0 2.16915,0.97116 2.16915,2.16915c0,1.19799 -0.97116,2.16915 -2.16915,2.16915c-1.19799,0 -2.16915,-0.97116 -2.16915,-2.16915z" fill="#efddab" stroke="none" stroke-width="0" stroke-linecap="butt"/></g></g></g></svg>