<svg version="1.1" xmlns="http://www.w3.org/2000/svg" xmlns:xlink="http://www.w3.org/1999/xlink" width="95.46905" height="101.04252" viewBox="0,0,95.46905,101.04252"><defs><linearGradient x1="240" y1="137.33542" x2="240" y2="226.74294" gradientUnits="userSpaceOnUse" id="color-1"><stop offset="0" stop-color="#f76c0a"/><stop offset="1" stop-color="#fb8014"/></linearGradient><linearGradient x1="236.78123" y1="138.92849" x2="236.78123" y2="220.25398" gradientUnits="userSpaceOnUse" id="color-2"><stop offset="0" stop-color="#fb8014"/><stop offset="1" stop-color="#fb8614"/></linearGradient></defs><g transform="translate(-192.26547,-128.73119)"><g data-paper-data="{&quot;isPaintingLayer&quot;:true}" fill-rule="nonzero" stroke-linejoin="miter" stroke-miterlimit="10" stroke-dasharray="" stroke-dashoffset="0" style="mix-blend-mode: normal"><g stroke="none" stroke-width="0" stroke-linecap="butt"><path d="M192.26548,182.03918c0,-26.36305 21.37148,-47.73452 47.73452,-47.73452c26.36305,0 47.73453,21.37148 47.73453,47.73452c0,26.36305 -21.37148,47.73452 -47.73453,47.73452c-26.36305,0 -47.73452,-21.37148 -47.73452,-47.73452z" fill="#ee680e"/><path d="M195.29624,182.03918c0,-24.68921 20.01455,-44.70376 44.70376,-44.70376c24.68921,0 44.70376,20.01455 44.70376,44.70376c0,24.68921 -20.01455,44.70376 -44.70376,44.70376c-24.68921,0 -44.70376,-20.01455 -44.70376,-44.70376z" fill="url(#color-1)"/><path d="M196.11848,179.59123c-0.75727,-22.44464 19.21214,-42.00517 41.66956,-42.00517c25.81346,0 42.34077,18.87654 42.34077,41.33396c0,22.45741 -20.21895,44.35439 -42.67637,44.35439c-22.45741,0 -40.32714,-13.84247 -41.33396,-43.68318z" fill="url(#color-2)"/></g><g><path d="M256.32065,138.86613c0,3.54903 2.94098,6.02446 -0.10041,6.22527c-1.07884,0.07124 -8.47677,-3.41169 -14.73112,-2.66939c-4.1186,0.48882 -13.75403,3.29568 -15.22106,2.17639c-2.15316,-1.64278 3.81008,-4.78215 3.18753,-6.80553c-0.27943,-0.90819 -3.85969,-1.85733 -3.85969,-3.14387c0,-2.10585 7.85633,-2.02636 12.63659,-3.25119c3.27603,-0.8394 0.57237,-1.21925 4.73394,-1.16674c2.90339,0.03663 3.34644,2.05702 5.06341,2.16014c4.61758,0.27734 10.09119,0.74634 11.79086,1.91378c1.62907,1.11894 -3.50006,3.10142 -3.50006,4.56115z" fill="#aeeb2f" stroke="#657c01" stroke-width="3" stroke-linecap="butt"/><path d="M214.55105,180.03327c0,-2.88359 2.33761,-5.22119 5.2212,-5.22119c2.88359,0 5.2212,2.3376 5.2212,5.22119c0,2.88359 -2.33761,5.2212 -5.2212,5.2212c-2.88359,0 -5.2212,-2.33761 -5.2212,-5.2212z" fill="#d52f18" stroke="none" stroke-width="0" stroke-linecap="butt"/><path d="M256.30026,180.2137c0,-2.88359 2.33761,-5.22119 5.2212,-5.22119c2.88359,0 5.2212,2.3376 5.2212,5.22119c0,2.88359 -2.33761,5.2212 -5.2212,5.2212c-2.88359,0 -5.2212,-2.33761 -5.2212,-5.2212z" fill="#d52f18" stroke="none" stroke-width="0" stroke-linecap="butt"/><path d="M233.05513,184.6683c0,0 1.89686,0.38148 2.58296,2.1455c1.24787,3.20838 0.42722,6.55059 0.42722,6.55059" fill="none" stroke="#da3c07" stroke-width="2" stroke-linecap="round"/><path d="M236.23255,189.35081c0,0 2.51665,-0.68145 3.71986,-0.7674c1.13394,-0.081 3.97284,0.60017 3.97284,0.60017" fill="none" stroke="#da3c07" stroke-width="2" stroke-linecap="round"/><path d="M244.59417,186.17339c0,0 -0.46471,1.87971 -0.52361,2.88101c-0.05163,0.87766 0.18914,2.8049 0.18914,2.8049" fill="none" stroke="#da3c07" stroke-width="2" stroke-linecap="round"/><path d="M223.53406,151.05901c2.19773,2.37059 0.81466,6.76113 -2.47029,9.80655c-3.28495,3.04542 -7.56231,5.76652 -9.76004,3.39593c-2.19773,-2.37059 -1.31636,-8.43346 1.96859,-11.47888c3.28496,-3.04542 8.06401,-4.09419 10.26174,-1.7236z" fill="#efddab" stroke="#da3c07" stroke-width="0" stroke-linecap="butt"/><path d="M229.71048,149.88394c0,-1.47776 1.19796,-2.67572 2.67572,-2.67572c1.47776,0 2.67572,1.19796 2.67572,2.67572c0,1.47776 -1.19796,2.67572 -2.67572,2.67572c-1.47776,0 -2.67572,-1.19796 -2.67572,-2.67572z" fill="#efddab" stroke="none" stroke-width="0" stroke-linecap="butt"/></g></g></g></svg>