<svg version="1.1" xmlns="http://www.w3.org/2000/svg" xmlns:xlink="http://www.w3.org/1999/xlink" width="36.17844" height="48.80881" viewBox="0,0,36.17844,48.80881"><defs><linearGradient x1="406.31342" y1="-5.58937" x2="406.31342" y2="19.37167" gradientUnits="userSpaceOnUse" id="color-1"><stop offset="0" stop-color="#f71d15"/><stop offset="1" stop-color="#df0705"/></linearGradient></defs><g transform="translate(-387.77687,25.2794)"><g data-paper-data="{&quot;isPaintingLayer&quot;:true}" fill-rule="nonzero" stroke-linejoin="miter" stroke-miterlimit="10" stroke-dasharray="" stroke-dashoffset="0" style="mix-blend-mode: normal"><path d="M387.77687,6.30628c0,-9.51207 7.71106,-17.22313 17.22313,-17.22313c9.51207,0 17.22313,7.71106 17.22313,17.22313c0,9.51207 -7.71106,17.22313 -17.22313,17.22313c-9.51207,0 -17.22313,-7.71106 -17.22313,-17.22313z" fill="#ad2407" stroke="none" stroke-width="0" stroke-linecap="butt"/><path d="M389.21881,6.30628c0,-8.71571 7.06548,-15.78119 15.78119,-15.78119c8.71571,0 15.78119,7.06548 15.78119,15.78119c0,8.71571 -7.06548,15.78119 -15.78119,15.78119c-8.71571,0 -15.78119,-7.06548 -15.78119,-15.78119z" fill="#e52e1f" stroke="none" stroke-width="0" stroke-linecap="butt"/><g fill="#72cd57" stroke="#7ba952" stroke-width="3.5" stroke-linecap="butt"><path d="M407.72788,-14.82497c-0.30072,3.24871 1.25091,6.59436 -0.33282,7.0723c-1.65427,0.49923 -3.49454,-3.14408 -2.99532,-7.73793c0.13996,-1.2879 0.40571,-3.28948 1.38085,-4.77109c1.48071,-2.24977 3.94521,-3.73524 4.94261,-3.13324c0.93666,0.56532 -0.86292,1.89301 -2.06006,4.21827c-0.61304,1.19071 -0.82256,3.13409 -0.93526,4.35169z"/><path d="M422.2053,-16.15622c0,1.27551 -4.75349,4.40979 -8.15394,4.40979c-3.40045,0 -5.92059,-3.13699 -5.82425,-5.40823c0.11773,-2.7754 1.75817,-3.91056 5.15862,-3.91056c1.60125,0 3.33612,2.41478 4.8998,3.1489c1.75699,0.82487 3.91978,1.17328 3.91978,1.7601z"/></g><path d="M419.54278,6.39193c-1.66407,7.22563 -6.49181,15.14305 -13.06295,15.14305c-6.57113,0 -14.2278,-8.74945 -14.56061,-17.63915c-0.25787,-6.88798 5.39025,-10.90183 12.06451,-8.98599c2.77682,0.79709 3.79214,4.40462 4.59575,4.55445c5.68565,1.06009 12.31865,1.04247 10.9633,6.92763z" fill="url(#color-1)" stroke="none" stroke-width="0" stroke-linecap="butt"/><path d="M404.55492,3.75285c0.13506,0.90906 -1.23835,0.68868 -3.46555,1.01956c-2.22721,0.33089 -4.41591,1.41694 -4.55097,0.50789c-0.13506,-0.90906 1.8168,-2.45695 4.04402,-2.78783c2.22721,-0.33089 3.83745,0.35133 3.9725,1.26039z" fill="#b11400" stroke="none" stroke-width="0" stroke-linecap="butt"/><path d="M418.46888,4.58684c-0.09248,0.90668 -1.7528,0.30909 -3.13948,0.16767c-1.38668,-0.14143 -2.92062,-0.0648 -2.82815,-0.97147c0.09248,-0.90668 1.83159,-1.08165 3.21827,-0.94022c1.38668,0.14143 2.84182,0.83736 2.74936,1.74403z" fill="#b11400" stroke="none" stroke-width="0" stroke-linecap="butt"/><path d="M410.18421,6.84618c0,0 -0.71126,1.02164 -1.92976,1.02164c-0.76546,0 -1.70275,-1.02164 -1.70275,-1.02164" fill="none" stroke="#b11400" stroke-width="3" stroke-linecap="round"/><path d="M401.44349,7.52727c0,-0.25078 0.20329,-0.45407 0.45407,-0.45407c0.25078,0 0.45407,0.20329 0.45407,0.45407c0,0.25078 -0.20329,0.45407 -0.45407,0.45407c-0.25078,0 -0.45407,-0.20329 -0.45407,-0.45407z" fill="#b11400" stroke="none" stroke-width="0" stroke-linecap="butt"/><path d="M399.17317,7.75431c0,-0.37616 0.30493,-0.68109 0.68109,-0.68109c0.37616,0 0.68109,0.30493 0.68109,0.68109c0,0.37616 -0.30493,0.68109 -0.68109,0.68109c-0.37616,0 -0.68109,-0.30493 -0.68109,-0.68109z" fill="#b11400" stroke="none" stroke-width="0" stroke-linecap="butt"/><path d="M396.44879,8.09485c0,-0.50154 0.40658,-0.90813 0.90813,-0.90813c0.50154,0 0.90813,0.40658 0.90813,0.90813c0,0.50154 -0.40658,0.90813 -0.90813,0.90813c-0.50154,0 -0.90813,-0.40658 -0.90813,-0.90813z" fill="#b11400" stroke="none" stroke-width="0" stroke-linecap="butt"/><path d="M413.58969,7.24348c0,-0.28212 0.22869,-0.51082 0.51082,-0.51082c0.28212,0 0.51082,0.22869 0.51082,0.51082c0,0.28212 -0.22869,0.51082 -0.51082,0.51082c-0.28212,0 -0.51082,-0.22869 -0.51082,-0.51082z" fill="#b11400" stroke="none" stroke-width="0" stroke-linecap="butt"/><path d="M415.51946,7.18672c0,-0.31347 0.25411,-0.56758 0.56758,-0.56758c0.31347,0 0.56758,0.25411 0.56758,0.56758c0,0.31347 -0.25411,0.56758 -0.56758,0.56758c-0.31347,0 -0.56758,-0.25411 -0.56758,-0.56758z" fill="#b11400" stroke="none" stroke-width="0" stroke-linecap="butt"/><path d="M417.56275,7.47051c0,-0.34482 0.27952,-0.62434 0.62434,-0.62434c0.34482,0 0.62434,0.27952 0.62434,0.62434c0,0.34482 -0.27952,0.62434 -0.62434,0.62434c-0.34482,0 -0.62434,-0.27952 -0.62434,-0.62434z" fill="#b11400" stroke="none" stroke-width="0" stroke-linecap="butt"/></g></g></svg>