<svg version="1.1" xmlns="http://www.w3.org/2000/svg" xmlns:xlink="http://www.w3.org/1999/xlink" width="98.77671" height="103.35427" viewBox="0,0,98.77671,103.35427"><defs><radialGradient cx="224.44314" cy="171.73365" r="43.7288" gradientUnits="userSpaceOnUse" id="color-1"><stop offset="0" stop-color="#faf5d2"/><stop offset="1" stop-color="#f7ec81"/></radialGradient></defs><g transform="translate(-190.61164,-127.57287)"><g data-paper-data="{&quot;isPaintingLayer&quot;:true}" fill-rule="nonzero" stroke-linejoin="miter" stroke-miterlimit="10" stroke-dasharray="" stroke-dashoffset="0" style="mix-blend-mode: normal"><path d="M190.61165,181.53878c0,-27.27643 22.11192,-49.38835 49.38836,-49.38835c27.27644,0 49.38835,22.11192 49.38835,49.38835c0,27.27643 -22.11191,49.38835 -49.38835,49.38835c-27.27644,0 -49.38836,-22.11192 -49.38836,-49.38835z" fill="#e2ab15" stroke="none" stroke-width="NaN" stroke-linecap="butt"/><path d="M193.43384,181.53878c0,-25.71778 20.84838,-46.56616 46.56616,-46.56616c25.71778,0 46.56616,20.84838 46.56616,46.56616c0,25.71778 -20.84838,46.56616 -46.56616,46.56616c-25.71778,0 -46.56616,-20.84838 -46.56616,-46.56616z" fill="#f6e14a" stroke="none" stroke-width="0" stroke-linecap="butt"/><path d="M281.2598,179.59547c0,23.49113 -21.09454,42.53446 -44.13197,42.53446c-23.03742,0 -43.32563,-12.5926 -43.32563,-42.13129c0,-23.49113 20.69137,-44.55031 43.7288,-44.55031c28.27864,0 43.7288,20.65601 43.7288,44.14714z" fill="url(#color-1)" stroke="none" stroke-width="0" stroke-linecap="butt"/><path d="M247.45618,138.78564c0,0 -1.93323,4.60463 -7.86184,4.71798c-3.2816,0.06274 -5.56337,-4.56366 -5.56337,-4.56366" fill="none" stroke="#f0de4c" stroke-width="3" stroke-linecap="round"/><path d="M240.20348,142.65241c0,0 -0.99711,-3.83952 0.96926,-7.74103c2.47246,-4.90563 7.36363,-5.83851 7.36363,-5.83851" fill="none" stroke="#915f16" stroke-width="3" stroke-linecap="round"/><path d="M214.00533,179.09798c0,-2.83517 2.29836,-5.13353 5.13354,-5.13353c2.83518,0 5.13354,2.29836 5.13354,5.13353c0,2.83517 -2.29836,5.13353 -5.13354,5.13353c-2.83518,0 -5.13354,-2.29836 -5.13354,-5.13353z" fill="#c07f07" stroke="none" stroke-width="0" stroke-linecap="butt"/><path d="M256.72566,178.96445c0,-2.83517 2.29836,-5.13353 5.13353,-5.13353c2.83517,0 5.13354,2.29836 5.13354,5.13353c0,2.83517 -2.29837,5.13353 -5.13354,5.13353c-2.83517,0 -5.13353,-2.29836 -5.13353,-5.13353z" fill="#c07f07" stroke="none" stroke-width="0" stroke-linecap="butt"/><path d="M250.03525,186.0727c0,0 0.12777,2.57735 -4.23317,2.58743c-1.91093,0.00441 -4.15798,-3.41287 -5.6721,-3.41287c-1.31242,0 -3.65421,3.08651 -5.44068,3.23147c-4.39686,0.35678 -4.81834,-2.40604 -4.81834,-2.40604" fill="none" stroke="#c07f07" stroke-width="2" stroke-linecap="round"/><path d="M243.66757,187.84149c0,0 -0.29545,3.88526 -3.88883,3.82751c-3.23759,-0.05203 -3.18635,-3.94543 -3.18635,-3.94543" fill="none" stroke="#c07f07" stroke-width="2" stroke-linecap="round"/><path d="M199.14368,171.2037c0,-1.01596 0.8236,-1.83956 1.83956,-1.83956c1.01596,0 1.83956,0.8236 1.83956,1.83956c0,1.01596 -0.8236,1.83956 -1.83956,1.83956c-1.01596,0 -1.83956,-0.8236 -1.83956,-1.83956z" fill="#f2d855" stroke="none" stroke-width="0" stroke-linecap="butt"/><path d="M201.65216,177.97662c0,-0.60034 0.48667,-1.08701 1.08701,-1.08701c0.60034,0 1.08701,0.48667 1.08701,1.08701c0,0.60034 -0.48667,1.08701 -1.08701,1.08701c-0.60034,0 -1.08701,-0.48667 -1.08701,-1.08701z" fill="#f2d855" stroke="none" stroke-width="0" stroke-linecap="butt"/><path d="M194.6284,191.02075c0,-1.1545 0.93591,-2.09041 2.09041,-2.09041c1.1545,0 2.09041,0.93591 2.09041,2.09041c0,1.1545 -0.93591,2.09041 -2.09041,2.09041c-1.1545,0 -2.09041,-0.93591 -2.09041,-2.09041z" fill="#f2d855" stroke="none" stroke-width="0" stroke-linecap="butt"/><path d="M208.50869,209.66717c0,-1.01596 0.8236,-1.83956 1.83956,-1.83956c1.01596,0 1.83956,0.8236 1.83956,1.83956c0,1.01596 -0.8236,1.83956 -1.83956,1.83956c-1.01596,0 -1.83956,-0.8236 -1.83956,-1.83956z" fill="#f2d855" stroke="none" stroke-width="0" stroke-linecap="butt"/><path d="M228.0749,211.67396c0,-1.66248 1.34771,-3.01018 3.01018,-3.01018c1.66248,0 3.01018,1.34771 3.01018,3.01018c0,1.66248 -1.34771,3.01018 -3.01018,3.01018c-1.66248,0 -3.01018,-1.34771 -3.01018,-3.01018z" fill="#f2d855" stroke="none" stroke-width="0" stroke-linecap="butt"/><path d="M222.55622,221.03898c0,-0.64652 0.52411,-1.17063 1.17063,-1.17063c0.64652,0 1.17063,0.52411 1.17063,1.17063c0,0.64652 -0.52411,1.17063 -1.17063,1.17063c-0.64652,0 -1.17063,-0.52411 -1.17063,-1.17063z" fill="#f2d855" stroke="none" stroke-width="0" stroke-linecap="butt"/><path d="M248.53585,219.28304c0,-1.33922 1.08565,-2.42487 2.42487,-2.42487c1.33922,0 2.42487,1.08565 2.42487,2.42487c0,1.33922 -1.08565,2.42487 -2.42487,2.42487c-1.33922,0 -2.42487,-1.08565 -2.42487,-2.42487z" fill="#f2d855" stroke="none" stroke-width="0" stroke-linecap="butt"/><path d="M258.06811,207.49315c0,-0.83124 0.67385,-1.50509 1.50509,-1.50509c0.83124,0 1.50509,0.67385 1.50509,1.50509c0,0.83124 -0.67385,1.50509 -1.50509,1.50509c-0.83124,0 -1.50509,-0.67385 -1.50509,-1.50509z" fill="#f2d855" stroke="none" stroke-width="0" stroke-linecap="butt"/><path d="M264.25571,206.48976c0,-1.29304 1.04822,-2.34125 2.34125,-2.34125c1.29304,0 2.34125,1.04822 2.34125,2.34125c0,1.29304 -1.04822,2.34125 -2.34125,2.34125c-1.29304,0 -2.34125,-1.04822 -2.34125,-2.34125z" fill="#f2d855" stroke="none" stroke-width="0" stroke-linecap="butt"/><path d="M260.0749,216.94179c0,-1.06214 0.86103,-1.92317 1.92317,-1.92317c1.06214,0 1.92317,0.86103 1.92317,1.92317c0,1.06214 -0.86103,1.92317 -1.92317,1.92317c-1.06214,0 -1.92317,-0.86103 -1.92317,-1.92317z" fill="#f2d855" stroke="none" stroke-width="0" stroke-linecap="butt"/><path d="M268.77099,156.98894c0,-1.10832 0.89847,-2.00679 2.00679,-2.00679c1.10832,0 2.00679,0.89847 2.00679,2.00679c0,1.10832 -0.89847,2.00679 -2.00679,2.00679c-1.10832,0 -2.00679,-0.89847 -2.00679,-2.00679z" fill="#f2d855" stroke="none" stroke-width="0" stroke-linecap="butt"/><path d="M276.46368,163.51101c0,-1.20068 0.97334,-2.17402 2.17402,-2.17402c1.20068,0 2.17402,0.97334 2.17402,2.17402c0,1.20068 -0.97334,2.17402 -2.17402,2.17402c-1.20068,0 -2.17402,-0.97334 -2.17402,-2.17402z" fill="#f2d855" stroke="none" stroke-width="0" stroke-linecap="butt"/><path d="M272.14328,209.74872c0.07855,-2.61002 4.26589,-6.73381 7.73672,-5.58763c2.4795,0.81881 -4.12261,10.4589 -6.73381,10.4589c-1.16454,0 -1.08228,-2.23397 -1.00291,-4.87127z" fill="#fdfdf0" stroke="none" stroke-width="0" stroke-linecap="butt"/></g></g></svg>